<?xml version="1.0" encoding="UTF-8" standalone="no"?>
<!-- Created with Inkscape (http://www.inkscape.org/) -->

<svg
   xmlns:dc="http://purl.org/dc/elements/1.1/"
   xmlns:cc="http://creativecommons.org/ns#"
   xmlns:rdf="http://www.w3.org/1999/02/22-rdf-syntax-ns#"
   xmlns:svg="http://www.w3.org/2000/svg"
   xmlns="http://www.w3.org/2000/svg"
   xmlns:sodipodi="http://sodipodi.sourceforge.net/DTD/sodipodi-0.dtd"
   xmlns:inkscape="http://www.inkscape.org/namespaces/inkscape"
   width="357.53125"
   height="423.95618"
   id="svg2"
   version="1.1"
   inkscape:version="0.48.3.1 r9886"
   sodipodi:docname="progammer.svg"
   inkscape:export-filename="/home/facmate1/Escritorio/programmer.png"
   inkscape:export-xdpi="90"
   inkscape:export-ydpi="90">
  <defs
     id="defs4" />
  <sodipodi:namedview
     id="base"
     pagecolor="#ffffff"
     bordercolor="#666666"
     borderopacity="1.0"
     inkscape:pageopacity="0.0"
     inkscape:pageshadow="2"
     inkscape:zoom="0.98994949"
     inkscape:cx="114.18351"
     inkscape:cy="210.68162"
     inkscape:document-units="px"
     inkscape:current-layer="layer1"
     showgrid="false"
     fit-margin-top="0"
     fit-margin-left="0"
     fit-margin-right="0"
     fit-margin-bottom="0"
     inkscape:window-width="1366"
     inkscape:window-height="709"
     inkscape:window-x="0"
     inkscape:window-y="27"
     inkscape:window-maximized="1" />
  <metadata
     id="metadata7">
    <rdf:RDF>
      <cc:Work
         rdf:about="">
        <dc:format>image/svg+xml</dc:format>
        <dc:type
           rdf:resource="http://purl.org/dc/dcmitype/StillImage" />
        <dc:title></dc:title>
      </cc:Work>
    </rdf:RDF>
  </metadata>
  <g
     inkscape:label="Capa 1"
     inkscape:groupmode="layer"
     id="layer1"
     transform="translate(-210.34375,-256.45006)">
    <g
       id="g3815"
       transform="matrix(0.54811902,0,0,0.54811902,234.06355,221.14048)">
      <path
         sodipodi:nodetypes="cccc"
         style="font-size:medium;font-style:normal;font-variant:normal;font-weight:normal;font-stretch:normal;text-indent:0;text-align:start;text-decoration:none;line-height:normal;letter-spacing:normal;word-spacing:normal;text-transform:none;direction:ltr;block-progression:tb;writing-mode:lr-tb;text-anchor:start;baseline-shift:baseline;color:#000000;fill:#ddb808;fill-opacity:1;fill-rule:nonzero;stroke:none;stroke-width:21.88276863;marker:none;visibility:visible;display:inline;overflow:visible;enable-background:accumulate;font-family:Sans;-inkscape-font-specification:Sans"
         d="m 273.09375,97.28125 264.75,457 L 11,555.59375 z"
         id="path3813"
         inkscape:connector-curvature="0" />
      <path
         inkscape:connector-curvature="0"
         id="path2996"
         d="m 272.40625,64.4375 a 10.942478,10.942478 0 0 0 -8.875,5.5 l -280.9375,491.25 a 10.942478,10.942478 0 0 0 9.53125,16.375 l 564.71875,-1.4375 a 10.942478,10.942478 0 0 0 9.4375,-16.4375 L 282.5,69.875 a 10.942478,10.942478 0 0 0 -10.09375,-5.4375 z m 0.6875,32.84375 264.75,457 L 11,555.59375 273.09375,97.28125 z"
         style="font-size:medium;font-style:normal;font-variant:normal;font-weight:normal;font-stretch:normal;text-indent:0;text-align:start;text-decoration:none;line-height:normal;letter-spacing:normal;word-spacing:normal;text-transform:none;direction:ltr;block-progression:tb;writing-mode:lr-tb;text-anchor:start;baseline-shift:baseline;color:#000000;fill:#000000;fill-opacity:1;fill-rule:nonzero;stroke:none;stroke-width:21.88276863;marker:none;visibility:visible;display:inline;overflow:visible;enable-background:accumulate;font-family:Sans;-inkscape-font-specification:Sans" />
      <path
         inkscape:connector-curvature="0"
         id="path3766"
         d="m 219.99995,263.69773 c -11.90002,0.009 -23.2251,6.57209 -28.21875,17.5 -5.95528,13.0323 -0.9069,27.88963 11.21875,35.46875 -7.39414,1.13701 -13,6.77664 -13,13.625 l 0,98.8125 0,10.34375 0,3.71875 c 0,5.89937 3.64348,10.65625 8.15625,10.65625 l 72.28125,0 60.84375,61.59375 c 6.31056,6.38601 14.89819,8.0317 19.25,3.71875 l 9.1875,-9.09375 c 4.35176,-4.31302 2.74806,-12.92649 -3.5625,-19.3125 l -64.625,-65.40625 c -4.33851,-4.39038 -9.72208,-6.54413 -14.09375,-6.0625 -0.008,-0.004 -0.0231,0.004 -0.0312,0 -0.95981,-0.51707 -2.02031,-0.8125 -3.125,-0.8125 l -47.90625,0 0,-59.59375 c 0.41732,0.1701 0.81554,0.349 1.25,0.5 l 59.5625,20.71875 c 8.4804,2.94738 16.81244,0.95754 18.6875,-4.4375 l 2.34375,-6.75 c 1.87506,-5.39504 -3.42585,-12.11512 -11.90625,-15.0625 L 236.75,333.13523 c -3.66261,-1.27294 -7.27498,-1.62891 -10.375,-1.1875 l 0,-1.65625 c 0,-3.38699 -1.38053,-6.47354 -3.65625,-8.875 10.87464,-0.91751 20.88347,-7.27236 25.5,-17.375 6.70205,-14.66649 -0.47959,-31.66084 -16.0625,-37.96875 L 220,292.60398 231.875,265.94773 c -3.88549,-1.53286 -7.90833,-2.25294 -11.875,-2.25 z"
         style="fill:#000000;fill-opacity:1;stroke:none" />
      <path
         inkscape:connector-curvature="0"
         id="path3768"
         d="m 216.97121,252.88592 -2.52538,-15.65737 -7.57614,6.31346 0.25254,-22.98097 3.78807,14.39467 7.07107,-5.80838 z"
         style="fill:#000000;fill-opacity:1;stroke:none" />
      <path
         style="fill:#000000;fill-opacity:1;stroke:none"
         d="m 238.09747,254.77225 2.12633,-15.71654 -9.0821,3.8436 6.90973,-21.91905 -0.55159,14.87454 8.4522,-3.5068 z"
         id="path3770"
         inkscape:connector-curvature="0" />
      <path
         inkscape:connector-curvature="0"
         id="path3772"
         d="m 257.17359,267.32602 10.17376,-12.16658 -9.73344,-1.58681 17.52648,-14.86644 -8.39252,12.29315 9.02094,1.53618 z"
         style="fill:#000000;fill-opacity:1;stroke:none" />
      <path
         inkscape:connector-curvature="0"
         id="rect3774"
         d="m 159.33898,342.95568 c -5.26225,0 -9.5,3.21852 -9.5,7.1875 l 0,51.5 c 0,2.52118 1.71659,4.75516 4.3125,6.03125 l 0,108.125 c 0,3.9652 3.17063,7.15625 7.125,7.15625 l 7.875,0 c 3.95437,0 7.125,-3.19105 7.125,-7.15625 l 0,-49.03125 53.5625,0 0,48.59375 c 0,4.21376 3.20188,7.59375 7.15625,7.59375 l 7.875,0 c 3.95437,0 7.125,-3.37999 7.125,-7.59375 l 0,-61.75 c 0,-1.38264 -0.33723,-2.66632 -0.9375,-3.78125 -1.02072,-3.00459 -4.36617,-5.21875 -8.34375,-5.21875 l -66.4375,0 0,-37.71875 c 1.86046,-1.30621 3.03125,-3.17283 3.03125,-5.25 l 0,-51.5 c 0,-3.96898 -4.23775,-7.1875 -9.5,-7.1875 l -0.65625,0 -7.875,0 -1.9375,0 z"
         style="fill:#000000;fill-opacity:1;stroke:none" />
      <path
         inkscape:connector-curvature="0"
         id="rect3795"
         d="m 334.38839,243.27679 c -4.88798,0 -8.8125,5.9204 -8.8125,13.25 l 0,76.5625 c 0,7.3296 3.92452,13.25 8.8125,13.25 l 9.625,0 c 4.88798,0 8.8125,-5.9204 8.8125,-13.25 l 0,-76.5625 c 0,-7.3296 -3.92452,-13.25 -8.8125,-13.25 l -9.625,0 z m 28.8125,50.53125 c -4.05728,0 -7.34375,3.15096 -7.34375,7.0625 l 0,76.25 -8.71875,0 c 0.67802,-1.41111 1.0625,-3.0292 1.0625,-4.75 0,-5.54 -3.95941,-10 -8.90625,-10 l -63.59375,0 c -4.94684,0 -8.90625,4.46 -8.90625,10 0,1.7208 0.38448,3.33889 1.0625,4.75 l -13.25,0 c -6.8575,0 -12.375,4.97639 -12.375,11.15625 l 0,8 c 0,6.17986 5.5175,11.15625 12.375,11.15625 l 37.875,0 0,107.09375 c 0,4.88798 4.97639,8.8125 11.15625,8.8125 l 8,0 c 6.17986,0 11.15625,-3.92452 11.15625,-8.8125 l 0,-107.09375 37.375,0 0,107.09375 c 0,4.88798 4.97639,8.8125 11.15625,8.8125 l 7.96875,0 c 6.17986,0 11.15625,-3.92452 11.15625,-8.8125 l 0,-107.09375 32.84375,0 c 6.8575,0 12.375,-4.97639 12.375,-11.15625 l 0,-8 c 0,-6.17986 -5.5175,-11.15625 -12.375,-11.15625 l -52.78125,0 0,-76.25 c 0,-3.91154 -3.25522,-7.0625 -7.3125,-7.0625 z"
         style="fill:#000000;fill-opacity:1;stroke:none" />
    </g>
    <rect
       style="fill:#ddb808;fill-opacity:1;stroke:#000000;stroke-width:10.92291546;stroke-miterlimit:4.30000019;stroke-opacity:1;stroke-dasharray:none"
       id="rect3825"
       width="346.60605"
       height="110.73676"
       x="215.80348"
       y="564.20105"
       rx="4.8943281"
       ry="5.4811902" />
    <text
       xml:space="preserve"
       style="font-size:41.87835312px;font-style:normal;font-variant:normal;font-weight:normal;font-stretch:normal;text-align:center;line-height:125%;letter-spacing:0px;word-spacing:0px;writing-mode:lr-tb;text-anchor:middle;fill:#000000;fill-opacity:1;stroke:none;font-family:Serif;-inkscape-font-specification:Serif"
       x="388.69113"
       y="608.75195"
       id="text3827"
       sodipodi:linespacing="125%"><tspan
         sodipodi:role="line"
         id="tspan3829"
         x="388.69113"
         y="608.75195">DANGER</tspan><tspan
         sodipodi:role="line"
         x="388.69113"
         y="661.09991"
         id="tspan3831">MAN AT WORK</tspan></text>
  </g>
</svg>
