<?xml version="1.0" encoding="UTF-8" standalone="no"?>
<!-- Created with Inkscape (http://www.inkscape.org/) -->

<svg
   xmlns:dc="http://purl.org/dc/elements/1.1/"
   xmlns:cc="http://creativecommons.org/ns#"
   xmlns:rdf="http://www.w3.org/1999/02/22-rdf-syntax-ns#"
   xmlns:svg="http://www.w3.org/2000/svg"
   xmlns="http://www.w3.org/2000/svg"
   xmlns:xlink="http://www.w3.org/1999/xlink"
   xmlns:sodipodi="http://sodipodi.sourceforge.net/DTD/sodipodi-0.dtd"
   xmlns:inkscape="http://www.inkscape.org/namespaces/inkscape"
   width="352"
   height="500"
   id="svg2"
   version="1.1"
   inkscape:version="0.48.1 r9760"
   sodipodi:docname="New document 1">
  <defs
     id="defs4">
    <linearGradient
       id="linearGradient4410">
      <stop
         style="stop-color:#9a85ea;stop-opacity:1;"
         offset="0"
         id="stop4412" />
      <stop
         style="stop-color:#6b72e4;stop-opacity:0.98245615;"
         offset="1"
         id="stop4414" />
    </linearGradient>
    <linearGradient
       inkscape:collect="always"
       xlink:href="#linearGradient4410-6"
       id="linearGradient4420-9"
       x1="0"
       y1="250.34184"
       x2="355.58322"
       y2="250.34184"
       gradientUnits="userSpaceOnUse" />
    <linearGradient
       id="linearGradient4410-6">
      <stop
         style="stop-color:#9a85ea;stop-opacity:0.7719298;"
         offset="0"
         id="stop4412-6" />
      <stop
         style="stop-color:#6b72e4;stop-opacity:0.7719298;"
         offset="1"
         id="stop4414-9" />
    </linearGradient>
    <linearGradient
       y2="250.34184"
       x2="355.58322"
       y1="250.34184"
       x1="0"
       gradientUnits="userSpaceOnUse"
       id="linearGradient4437"
       xlink:href="#linearGradient4410-6"
       inkscape:collect="always" />
  </defs>
  <sodipodi:namedview
     id="base"
     pagecolor="#ffffff"
     bordercolor="#666666"
     borderopacity="1.0"
     inkscape:pageopacity="0.0"
     inkscape:pageshadow="2"
     inkscape:zoom="1.600188"
     inkscape:cx="260.1568"
     inkscape:cy="381.41288"
     inkscape:document-units="px"
     inkscape:current-layer="layer3"
     showgrid="false"
     fit-margin-top="0"
     fit-margin-left="0"
     fit-margin-right="0"
     fit-margin-bottom="0"
     showguides="true"
     inkscape:guide-bbox="true"
     inkscape:window-width="1366"
     inkscape:window-height="748"
     inkscape:window-x="-2"
     inkscape:window-y="-3"
     inkscape:window-maximized="1" />
  <metadata
     id="metadata7">
    <rdf:RDF>
      <cc:Work
         rdf:about="">
        <dc:format>image/svg+xml</dc:format>
        <dc:type
           rdf:resource="http://purl.org/dc/dcmitype/StillImage" />
        <dc:title></dc:title>
      </cc:Work>
    </rdf:RDF>
  </metadata>
  <g
     inkscape:label="Layer 1"
     inkscape:groupmode="layer"
     id="layer1"
     transform="translate(-199,-282.36218)"
     style="display:inline">
    <path
       style="fill:none;stroke:#000000;stroke-width:1px;stroke-linecap:butt;stroke-linejoin:miter;stroke-opacity:1"
       d="m 268.9289,77.602339 2.15143,20.797169 16.85288,-0.358572 -4.30286,-20.438597 z"
       id="path3274"
       inkscape:connector-curvature="0"
       transform="translate(199,282.36218)" />
    <path
       style="fill:none;stroke:#000000;stroke-width:1px;stroke-linecap:butt;stroke-linejoin:miter;stroke-opacity:1"
       d="m 267.13604,105.57094 0.71715,17.57003 45.18005,2.86857 -2.86857,-31.912895 -17.57003,1.075716"
       id="path3276"
       inkscape:connector-curvature="0"
       transform="translate(199,282.36218)" />
    <path
       style="fill:none;stroke:#000000;stroke-width:1px;stroke-linecap:butt;stroke-linejoin:miter;stroke-opacity:1"
       d="m 315.54324,88.000923 0,-10.398584 23.30718,3.585719 -3.58572,19.721452 -17.9286,-2.151431 0,0"
       id="path3278"
       inkscape:connector-curvature="0"
       transform="translate(199,282.36218)" />
    <path
       style="fill:none;stroke:#000000;stroke-width:1px;stroke-linecap:butt;stroke-linejoin:miter;stroke-opacity:1"
       d="m 352.47615,101.62665 -12.19145,-1.43428 1.43429,-20.080028 10.75716,1.434288"
       id="path3280"
       inkscape:connector-curvature="0"
       transform="translate(199,282.36218)" />
  </g>
  <g
     inkscape:groupmode="layer"
     id="layer3"
     inkscape:label="Layer#1"
     style="display:inline">
    <rect
       style="color:#000000;fill:url(#linearGradient4437);fill-opacity:1;fill-rule:nonzero;stroke:none;stroke-width:2;marker:none;visibility:visible;display:inline;overflow:visible;enable-background:accumulate"
       id="rect4408"
       width="355.58322"
       height="501.81604"
       x="-3.7495594"
       y="0.6836729" />
    <path
       style="fill:#c0c0c0;stroke:none;stroke-width:1px;stroke-linecap:butt;stroke-linejoin:miter;stroke-opacity:1"
       d="m -3.1246328,282.52556 36.8706678,-1.87478 3.749559,49.99412 158.731346,-8.12404 -0.62492,56.24339 160.60612,2.4997 -1.24985,119.9859 -356.2081431,1.24986 z"
       id="path4456"
       inkscape:connector-curvature="0" />
    <rect
       style="color:#000000;fill:#f5f5f5;fill-opacity:1;fill-rule:nonzero;stroke:none;stroke-width:2;marker:none;visibility:visible;display:inline;overflow:visible;enable-background:accumulate"
       id="rect4370"
       width="62.582451"
       height="114.78127"
       x="133.02278"
       y="68.938812" />
    <path
       style="fill:#a77660;fill-opacity:1;stroke:none"
       d="m 169.50583,302.99157 -14.03194,-6.17406 -22.73174,11.78683 -14.59322,17.96089 -15.71577,-19.08344 -6.735332,-3.08703 -9.541719,7.57725 -2.806387,10.66427 -10.383636,-12.3481 -10.944913,-1.96448 -12.348107,12.34811 -2.806388,12.34811 29.747713,31.71218 10.102996,3.92894 14.873853,-9.54171 7.01597,-16.27705 -2.52575,-7.01597 -5.33213,0.84191 -15.154498,17.39961 -3.648304,1.96447 -19.364077,-17.68024 -3.367666,-8.98045 4.490221,-7.85788 7.296609,3.92894 12.628745,14.31258 9.261081,-15.1545 9.822359,-0.56127 15.99641,14.31258 4.20958,-0.56128 22.73174,-21.60919 13.7513,-8.6998 z"
       id="path4350"
       inkscape:connector-curvature="0" />
    <path
       style="fill:#778899;stroke:none;stroke-width:1px;stroke-linecap:butt;stroke-linejoin:miter;stroke-opacity:1"
       d="m 162.48091,296.89887 8.12404,7.49911 27.49677,2.49971 -1.24985,-93.11406 c 0,0 -8.12405,3.12464 -11.87361,6.24927 -3.74956,3.12463 -3.74956,3.12463 -3.74956,3.12463 l 11.24868,44.36979 c 0,0 -10.62375,24.99706 -16.24809,26.87184 -5.62434,1.87478 -13.74838,2.49971 -13.74838,2.49971 z"
       id="path4402"
       inkscape:connector-curvature="0" />
    <path
       style="fill:#afccf5;fill-opacity:1;stroke:none"
       d="m 86.717387,225.53526 c 0,0 0.561278,-21.60919 2.24511,-23.57366 1.683833,-1.96447 6.454693,0.56128 6.454693,0.56128 0,0 -1.122556,-10.38364 0,-11.22555 1.122555,-0.84192 27.78324,0 27.78324,0 0,0 7.29661,1.40319 11.78683,0.56128 4.49022,-0.84192 9.54172,-1.4032 9.54172,-1.4032 l 1.96447,5.61278 c 0,0 3.06079,-4.91052 8.6998,-5.0515 11.22555,-0.28064 31.99282,41.2539 31.99282,41.2539 l -12.62874,29.18644 3.08703,-4.20959 3.08702,2.24511 0.84192,9.82236 10.38363,-2.52575 -14.59321,27.5026 -14.59322,2.80639 -6.73533,-1.96447 -6.17405,0.56128 -10.94492,-15.71577 17.68025,-3.36767 10.38363,-6.17405 0,-7.29661 -23.01238,-40.69263 -9.26108,-3.08702 -15.43513,4.20958 z"
       id="path4352"
       inkscape:connector-curvature="0"
       sodipodi:nodetypes="cscscsccscccccccccccccccccc" />
    <path
       style="fill:#a77660;fill-opacity:1;stroke:none"
       d="m 92.330163,177.26539 c 0,0 -5.332137,-1.12256 -9.26108,-7.57725 -3.928943,-6.45469 0,-22.17046 -1.683833,-18.8028 -1.683833,3.36767 -6.174053,13.47066 -6.174053,13.47066 l -1.683833,-19.92535 -10.664274,-2.24511 0,-8.6998 -3.928943,3.36766 c 0,0 -1.683833,-5.89341 -0.561278,-8.98044 1.122555,-3.08703 14.312578,-20.48663 14.312578,-20.48663 L 53.321371,119.4538 c 0,0 2.525749,-10.94492 7.01597,-14.59322 4.49022,-3.6483 16.838327,-8.980442 16.838327,-8.980442 L 65.1082,92.793111 c 0,0 13.190023,-1.683832 15.154495,-0.841916 1.964471,0.841916 4.770859,1.683833 4.770859,1.683833 0,0 1.964472,-11.78683 4.77086,-14.873856 2.806388,-3.087027 7.857886,-6.454693 7.857886,-6.454693 0,0 -4.770859,6.735331 -4.209582,9.822358 0.561278,3.087027 1.122555,6.735331 1.122555,6.735331 0,0 1.683833,-8.980441 3.648305,-10.944913 1.964472,-1.964471 6.174052,-3.367665 6.174052,-3.367665 0,0 -6.454691,7.577247 -4.20958,9.541719 2.24511,1.964471 8.41916,4.209582 8.41916,4.209582 l 8.13853,0 -1.68383,10.383635 c 0,0 -17.680249,-7.857886 -23.293025,-5.051498 -5.612776,2.806388 -3.648304,23.573662 -5.332137,29.467072 -1.683832,5.89342 -9.541719,12.90939 -7.577247,15.43513 1.964471,2.52575 12.628746,2.52575 12.628746,2.52575 0,0 -3.928944,17.68025 -3.648305,24.13494 0.280639,6.45469 4.490221,12.06747 4.490221,12.06747 z"
       id="path4354"
       inkscape:connector-curvature="0" />
    <path
       style="fill:#f9c2b1;fill-opacity:1;stroke:none"
       d="m 72.966086,144.71129 c 0,0 -4.73555,-4.1601 -16.838327,0.28064 -8.601994,3.15624 -11.225552,25.81877 -4.209582,30.02835 7.01597,4.20958 12.628745,-3.64831 12.628745,-3.64831 0,0 -0.841916,11.78683 7.296609,12.34811 8.138525,0.56128 16.27705,-1.96447 16.27705,-1.96447 l 1.964472,3.08703 3.928943,-5.61278 -10.102997,-7.85789 c 0,0 -3.928943,-3.08702 -3.928943,-7.01597 0,-3.92894 0.561278,-10.94491 0.561278,-10.94491 l -5.332137,11.22555 z"
       id="path4356"
       inkscape:connector-curvature="0"
       sodipodi:nodetypes="csscsccccsccc" />
    <path
       style="fill:#f9c2b1;fill-opacity:1;stroke:none"
       d="m 114.78127,98.125248 c 0,0 -17.960886,-7.015969 -21.889829,-4.770859 -3.928944,2.24511 -4.490221,24.415571 -6.174054,28.905791 -1.683833,4.49023 -9.541719,15.71578 -7.577247,17.39961 1.964471,1.68383 13.190023,0.84192 13.190023,0.84192 0,0 -7.296609,28.06388 -3.367666,31.71218 3.928944,3.6483 31.150903,27.5026 58.372873,15.71577 15.4949,-6.70912 38.16687,-37.32496 34.51857,-50.51498 -3.64831,-13.19002 -27.22197,-21.04791 -27.22197,-21.04791 l 1.96448,-12.62875 c 0,0 -34.51858,-21.047905 -36.48305,-19.364073 -1.96447,1.683833 -5.33213,13.751301 -5.33213,13.751301 z"
       id="path4362"
       inkscape:connector-curvature="0"
       sodipodi:nodetypes="cssscsssccsc" />
    <path
       style="fill:#fd7171;fill-opacity:1;stroke:none"
       d="m 92.049524,139.65979 c 3.367666,-9.82236 15.154496,-7.01597 16.838326,-5.0515 1.68383,1.96447 1.12256,10.66428 -4.49022,13.19002 -5.612775,2.52575 -8.98044,4.77086 -11.225551,4.77086 -2.24511,0 -3.087026,-0.56127 -3.087026,-0.56127 z"
       id="path4358"
       inkscape:connector-curvature="0" />
    <path
       style="fill:#fd7171;fill-opacity:1;stroke:none"
       d="m 153.22878,116.08613 -3.92895,0 c 0,0 -4.77085,1.96447 -6.17405,4.49022 -1.40319,2.52575 1.12256,4.20958 1.12256,4.20958 l 3.36767,0.56128 2.24511,4.77086 c 0,0 10.66427,0 12.3481,-2.80639 1.68384,-2.80639 1.68384,-4.77086 1.68384,-4.77086 z"
       id="path4360"
       inkscape:connector-curvature="0"
       sodipodi:nodetypes="ccscccscc" />
    <path
       style="fill:#f9c2b1;fill-opacity:1;stroke:#000000;stroke-width:1px;stroke-linecap:butt;stroke-linejoin:miter;stroke-opacity:0"
       d="m 152.94814,100.37036 c 1.4032,-5.893416 -2.52575,-5.0515 1.4032,-5.893416 3.92894,-0.841916 9.26108,3.928943 9.26108,7.857886 0,3.92894 0,4.49022 0.56127,5.33214 0.56128,0.84191 7.57725,3.6483 10.38364,8.13852 2.80639,4.49022 2.52575,12.06747 2.52575,12.06747 0,0 4.49022,13.7513 -7.57725,-4.20958 C 157.43836,105.7025 157.719,105.7025 157.719,105.7025 z"
       id="path4364"
       inkscape:connector-curvature="0" />
    <path
       style="fill:#a77660;fill-opacity:1;stroke:#000000;stroke-width:1px;stroke-linecap:butt;stroke-linejoin:miter;stroke-opacity:1"
       d="m 157.43836,105.14122 13.19003,20.76727 -14.59322,-9.82236 z"
       id="path4366"
       inkscape:connector-curvature="0" />
    <path
       style="fill:#87e788;fill-opacity:1;stroke:none"
       d="M -0.28063879,499.71936 -0.84191638,474.46187 40.973264,490.73892 c 0,0 -17.399605,-14.31258 -20.205993,-27.5026 -2.806388,-13.19003 -1.122555,-25.25749 -3.367666,-30.87027 -2.24511,-5.61277 -8.1385248,-36.2024 -8.1385248,-36.2024 0,0 29.7477118,17.3996 37.6055978,27.78324 7.857887,10.38363 7.857887,10.38363 7.857887,10.38363 l -7.857887,23.01238 12.067469,-15.71577 10.664274,41.2539 c 0,0 1.683832,-16.55769 5.332137,-28.62515 3.648304,-12.06747 8.419164,-19.08344 8.419164,-19.08344 l 22.170468,7.29661 2.80638,21.88982 -12.348103,4.77086 12.348103,8.98044 -11.225548,22.45111 z"
       id="path4368"
       inkscape:connector-curvature="0" />
    <path
       style="fill:#a77660;fill-opacity:1;stroke:none"
       d="m 187.46671,231.98995 -10.94491,25.25749 4.49022,0.84192 c 0,0 -1.12255,11.22555 1.12256,11.22555 2.24511,0 14.03194,-5.33213 14.03194,-5.33213 l 0.28064,-33.11538 z"
       id="path4372"
       inkscape:connector-curvature="0" />
    <path
       style="fill:#feead4;fill-opacity:1;stroke:none"
       d="m 308.43909,186.25823 c 0,0 -22.18583,66.708 -14.69555,87.2089 11.37468,31.1325 38.5576,45.8418 47.3954,45.8418 8.83779,0 7.07023,-3.13509 7.07023,-3.13509 l 3.53512,30.04851 4.66146,7.48988 0.48959,-164.69544 z"
       id="path4376"
       inkscape:connector-curvature="0"
       sodipodi:nodetypes="cssccccc" />
    <path
       style="fill:#ee5c28;fill-opacity:1;stroke:none"
       d="m 356.18497,139.42415 c 0,0 -3.52727,-1.64943 -9.36559,0.1487 -5.83832,1.79814 -13.2872,5.79401 -13.2872,5.79401 0,0 -17.11231,-5.79401 -27.37969,-3.19669 -10.26739,2.59731 -40.46558,23.57561 -35.43254,43.15535 5.03303,19.57975 8.05285,11.9876 8.05285,11.9876 0,0 -2.21454,6.99277 2.01321,11.78781 4.22774,4.79504 16.70967,13.18636 16.70967,13.18636 0,0 3.62378,-14.38512 6.44227,-21.17809 2.8185,-6.79298 6.6436,-14.78471 6.6436,-14.78471 0,0 15.30041,15.18429 22.54798,18.58078 7.24757,3.39649 23.27773,8.6422 23.27773,8.6422 z"
       id="path4374"
       inkscape:connector-curvature="0"
       sodipodi:nodetypes="cscsscscscscc" />
    <path
       style="fill:#d96e4d;fill-opacity:1;stroke:none"
       d="m 341.77774,294.51969 c -6.77565,-3.63746 -8.77267,-5.91977 -14.05055,-5.42052 -4.15549,0.39308 -5.20655,5.70581 -5.20655,5.70581 l 0.28529,3.70877 c 0,0 -2.56761,3.49481 -1.78306,3.99406 0.78455,0.49926 8.3702,5.52458 11.62558,5.06391 7.56019,-1.06984 14.40716,-10.55574 14.40716,-10.55574 l -2.99555,-1.14116 c 0,0 -6.77564,6.98961 -12.05351,6.70432 -5.27787,-0.28529 -8.34474,-4.70729 -8.34474,-4.70729 0,0 3.70877,-1.35513 7.2749,-2.06836 3.56613,-0.71322 10.84103,-1.2838 10.84103,-1.2838 z"
       id="path4378"
       inkscape:connector-curvature="0"
       sodipodi:nodetypes="csccssccscsc" />
    <path
       style="fill:#ee5c28;stroke:none;stroke-width:1px;stroke-linecap:butt;stroke-linejoin:miter;stroke-opacity:1;fill-opacity:1"
       d="m 299.96475,289.39975 c 0,0 -6.87419,22.49735 -6.87419,28.12169 0,5.62434 5.62434,23.12229 5.62434,23.12229 0,0 3.12463,14.37331 8.12404,18.74779 4.99942,4.37449 12.49854,4.37449 12.49854,4.37449 l 21.2475,-21.2475 -1.87478,-4.37449 9.3739,-5.62434 -2.49971,-14.99824 -4.37449,2.49971 c 0,0 -16.24809,-6.87419 -23.12228,-12.49853 -6.87419,-5.62434 -18.12287,-18.12287 -18.12287,-18.12287 z"
       id="path4380"
       inkscape:connector-curvature="0" />
    <path
       style="fill:#696969;stroke:none;stroke-width:1px;stroke-linecap:butt;stroke-linejoin:miter;stroke-opacity:1"
       d="m 291.84071,269.4021 c 0,0 -25.62199,39.37037 -21.87243,42.495 3.74956,3.12464 34.37096,3.12464 34.37096,3.12464 l 1.24985,-9.3739 -27.49677,1.87478 9.99883,-17.49795 6.87419,-12.49853 z"
       id="path4382"
       inkscape:connector-curvature="0" />
    <path
       style="fill:#ffdead;stroke:none;stroke-width:1px;stroke-linecap:butt;stroke-linejoin:miter;stroke-opacity:1"
       d="m 218.09937,395.01234 c 0,0 -151.232227,-1.24986 -151.857154,14.99823 -0.624927,16.2481 -3.124633,3.12464 -3.124633,3.12464 l 2.499706,17.49794 c 0,0 95.613761,29.37155 124.985311,33.74604 29.37155,4.37448 113.11171,10.62375 113.11171,10.62375 l 49.99413,4.37448 -1.87478,-44.36978 c 0,0 -39.9953,1.87478 -56.86832,0 -16.87302,-1.87478 -76.86597,-39.9953 -76.86597,-39.9953 z"
       id="path4384"
       inkscape:connector-curvature="0" />
    <path
       style="fill:#696969;stroke:#000000;stroke-width:1px;stroke-linecap:butt;stroke-linejoin:miter;stroke-opacity:1"
       d="m 221.84893,408.76072 -14.37331,-48.74427 67.49207,1.24985 10.62375,-0.62492 21.87243,73.74133 -28.1217,-1.87478 -41.24515,-6.24926 -7.49912,-16.2481 z"
       id="path4388"
       inkscape:connector-curvature="0" />
    <path
       style="fill:#8b0000;stroke:none;stroke-width:1px;stroke-linecap:butt;stroke-linejoin:miter;stroke-opacity:1"
       d="m 108.73722,501.87478 -1.87478,-59.36802 c 0,0 53.74369,16.87301 77.4909,20.62257 23.74721,3.74956 169.3551,15.62317 169.3551,15.62317 l 0,22.49735 z"
       id="path4394"
       inkscape:connector-curvature="0" />
    <path
       style="fill:#696969;stroke:#000000;stroke-width:1px;stroke-linecap:butt;stroke-linejoin:miter;stroke-opacity:1"
       d="m 81.240454,226.90709 9.998825,1.24985 18.122871,-3.12463 23.74721,-4.99941 c 0,0 11.24868,-2.49971 22.49735,21.2475 11.24868,23.74721 11.24868,28.74662 11.24868,28.74662 l -6.87419,3.74956 -21.2475,6.8742 11.24868,16.24809 -11.24868,6.24926 -13.74839,-18.12287 c 0,0 -21.87243,11.87361 -39.37037,-14.99824 -17.497944,-26.87184 -4.374486,-43.11993 -4.374486,-43.11993 z"
       id="path4396"
       inkscape:connector-curvature="0" />
    <path
       style="fill:#696969;stroke:#000000;stroke-width:1px;stroke-linecap:butt;stroke-linejoin:miter;stroke-opacity:1"
       d="m 195.60202,306.89769 -28.1217,-1.87478 c 0,0 -10.62375,3.74956 -15.62316,8.12405 -4.99942,4.37448 -16.87302,7.49912 -13.74839,11.24868 3.12463,3.74955 3.12463,3.74955 3.12463,3.74955 l 56.24339,0 z"
       id="path4398"
       inkscape:connector-curvature="0" />
    <path
       style="fill:#696969;stroke:none;stroke-width:1px;stroke-linecap:butt;stroke-linejoin:miter;stroke-opacity:1"
       d="m 181.85363,328.77012 c 0,0 3.74956,7.49912 3.74956,12.49853 0,4.99941 -0.62493,6.24927 -0.62493,6.24927 l -4.99941,0 -0.62493,14.99824 c 0,0 -10.62375,-9.99883 -23.74721,-8.74898 -13.12345,1.24986 -9.37389,15.62317 -9.37389,15.62317 0,0 1.87478,-1.24986 16.24809,-3.74956 14.37331,-2.49971 35.62081,-1.87478 35.62081,-1.87478 l -1.24985,-36.24574 z"
       id="path4400"
       inkscape:connector-curvature="0" />
    <path
       style="fill:#cbfadc;fill-opacity:1;stroke:none"
       d="m 349.33395,333.14461 -11.24868,4.99941 3.12463,6.8742 c 0,0 -25.62198,18.74779 -24.99706,25.62198 0.62493,6.87419 9.99883,18.7478 12.49853,33.74604 2.49971,14.99823 3.12464,28.74662 3.12464,28.74662 l 23.74721,0 0,-74.99119 c 0,0 -9.99883,-13.12346 -9.99883,-15.62316 0,-2.49971 3.74956,-9.3739 3.74956,-9.3739 z"
       id="path4404"
       inkscape:connector-curvature="0"
       sodipodi:nodetypes="cccsscccsc" />
    <path
       sodipodi:type="arc"
       style="color:#000000;fill:#696969;fill-opacity:1;fill-rule:nonzero;stroke:none;stroke-width:2;marker:none;visibility:visible;display:inline;overflow:visible;enable-background:accumulate"
       id="path4406"
       sodipodi:cx="155.29425"
       sodipodi:cy="373.13989"
       sodipodi:rx="8.4365082"
       sodipodi:ry="5.6243391"
       d="m 163.73076,373.13989 a 8.4365082,5.6243391 0 1 1 -16.87302,0 8.4365082,5.6243391 0 1 1 16.87302,0 z"
       transform="matrix(1.1481482,0,0,1,-21.756704,0)" />
  </g>
  <g
     inkscape:groupmode="layer"
     id="layer2"
     inkscape:label="Layer"
     style="display:inline">
    <path
       style="fill:#f5f5f5;stroke:#000000;stroke-width:3;stroke-linecap:butt;stroke-linejoin:miter;stroke-miterlimit:4;stroke-opacity:1;stroke-dasharray:none;fill-opacity:1"
       d="m 261.40351,106.14035 0,24.5614 57.01754,-1.75438 -3.50877,-38.596493 -24.5614,-1.754386"
       id="path3035"
       inkscape:connector-curvature="0" />
    <path
       style="fill:none;stroke:#000000;stroke-width:4;stroke-linecap:butt;stroke-linejoin:miter;stroke-miterlimit:4;stroke-opacity:1;stroke-dasharray:none"
       d="M 306.14035,42.982456 C 211.69591,43.529712 117.25146,45.35968 22.807018,48.245614 L 35.964912,329.82456 142.10526,328.07018"
       id="path2997"
       inkscape:connector-curvature="0"
       sodipodi:nodetypes="cccc" />
    <path
       style="fill:none;stroke:#000000;stroke-width:3;stroke-linecap:butt;stroke-linejoin:miter;stroke-miterlimit:4;stroke-opacity:1;stroke-dasharray:none"
       d="M 306.14035,50.877193 C 211.9883,46.7142 117.83626,49.494208 23.684211,57.017544"
       id="path2999"
       inkscape:connector-curvature="0"
       sodipodi:nodetypes="cc" />
    <path
       style="fill:none;stroke:#000000;stroke-width:1px;stroke-linecap:butt;stroke-linejoin:miter;stroke-opacity:1"
       d="m 209.64912,-1.754386 2.63158,45.614035"
       id="path3001"
       inkscape:connector-curvature="0" />
    <path
       style="fill:none;stroke:#000000;stroke-width:1px;stroke-linecap:butt;stroke-linejoin:miter;stroke-opacity:1"
       d="m 32.45614,280.70175 -33.33333298,0.8772"
       id="path3003"
       inkscape:connector-curvature="0" />
    <path
       style="fill:none;stroke:#000000;stroke-width:3;stroke-linecap:butt;stroke-linejoin:miter;stroke-miterlimit:4;stroke-opacity:1;stroke-dasharray:none"
       d="m 353.50877,53.508772 -162.2807,1.754386 5.26316,7.017544 0,317.543858 16.66666,0"
       id="path3005"
       inkscape:connector-curvature="0" />
    <path
       style="fill:none;stroke:#000000;stroke-width:3;stroke-linecap:butt;stroke-linejoin:miter;stroke-miterlimit:4;stroke-opacity:1;stroke-dasharray:none"
       d="M 354.38596,61.403509 193.85965,63.157895"
       id="path3007"
       inkscape:connector-curvature="0" />
    <path
       style="fill:none;stroke:#000000;stroke-width:1px;stroke-linecap:butt;stroke-linejoin:miter;stroke-opacity:1"
       d="m 214.91228,393.85965 c 0,0 -156.14035,0.87719 -149.122806,17.54386 7.017544,16.66667 159.649126,50 203.508776,50.87719 43.85964,0.87719 84.21052,2.63158 84.21052,2.63158"
       id="path3009"
       inkscape:connector-curvature="0" />
    <path
       style="fill:none;stroke:#000000;stroke-width:1px;stroke-linecap:butt;stroke-linejoin:miter;stroke-opacity:1"
       d="m 64.035088,410.52632 0.877193,19.29824 c 0,0 90.350879,28.94737 131.578949,35.08772 41.22807,6.14035 157.89473,14.03509 157.89473,14.03509"
       id="path3011"
       inkscape:connector-curvature="0" />
    <path
       style="fill:none;stroke:#000000;stroke-width:1px;stroke-linecap:butt;stroke-linejoin:miter;stroke-opacity:1"
       d="M 107.01754,441.22807 108.77193,500"
       id="path3013"
       inkscape:connector-curvature="0" />
    <path
       style="fill:none;stroke:#000000;stroke-width:3;stroke-linecap:butt;stroke-linejoin:miter;stroke-miterlimit:4;stroke-opacity:1;stroke-dasharray:none"
       d="m -0.87719298,473.68421 c 0,0 16.66666698,5.26316 26.31578898,8.77193 9.649123,3.50877 15.789474,8.77193 15.789474,8.77193 0,0 -19.298245,-20.17544 -21.052631,-28.94737 -1.754386,-8.77193 -3.508772,-21.05263 -2.631579,-25.43859 0.877193,-4.38597 -6.140351,-18.42106 -5.263158,-22.80702 0.877193,-4.38597 -3.5087722,-19.29825 -3.5087722,-19.29825 0,0 17.5438592,7.89474 26.3157892,15.78948 8.77193,7.89473 20.175439,22.80701 20.175439,22.80701 l -10.526316,26.31579 13.157895,-18.42105 11.403509,42.10526 c 0,0 2.631579,-21.05263 5.263158,-29.82456 2.631578,-8.77193 8.771929,-19.29824 8.771929,-19.29824"
       id="path3015"
       inkscape:connector-curvature="0" />
    <path
       style="fill:none;stroke:#000000;stroke-width:3;stroke-linecap:butt;stroke-linejoin:miter;stroke-miterlimit:4;stroke-opacity:1;stroke-dasharray:none"
       d="m 97.368421,500 11.403509,-21.92982 -12.280702,-8.77193 12.280702,-4.38597"
       id="path3017"
       inkscape:connector-curvature="0" />
    <path
       style="fill:none;stroke:#000000;stroke-width:1px;stroke-linecap:butt;stroke-linejoin:miter;stroke-opacity:1"
       d="m 104.38596,418.42105 9.64913,-28.07017 117.54386,19.29824 10.52631,25.4386 -16.66666,-2.63158"
       id="path3019"
       inkscape:connector-curvature="0" />
    <path
       style="fill:none;stroke:#000000;stroke-width:1px;stroke-linecap:butt;stroke-linejoin:miter;stroke-opacity:1"
       d="M 230.70175,409.64912 224.5614,442.10526 103.50877,418.42105"
       id="path3021"
       inkscape:connector-curvature="0" />
    <path
       style="fill:none;stroke:#000000;stroke-width:1px;stroke-linecap:butt;stroke-linejoin:miter;stroke-opacity:1"
       d="m 221.92982,407.01754 -14.03508,-45.61403 78.07017,-0.87719 20.17544,73.68421"
       id="path3023"
       inkscape:connector-curvature="0" />
    <path
       style="fill:none;stroke:#000000;stroke-width:1px;stroke-linecap:butt;stroke-linejoin:miter;stroke-opacity:1"
       d="m 277.19298,359.64912 21.92983,74.56141"
       id="path3025"
       inkscape:connector-curvature="0" />
    <path
       style="fill:none;stroke:#000000;stroke-width:1px;stroke-linecap:butt;stroke-linejoin:miter;stroke-opacity:1"
       d="m 239.47368,427.19298 c 0,0 42.10527,7.01755 58.77193,7.01755 16.66667,0 57.01755,0 57.01755,0"
       id="path3027"
       inkscape:connector-curvature="0" />
    <path
       style="fill:none;stroke:#000000;stroke-width:1px;stroke-linecap:butt;stroke-linejoin:miter;stroke-opacity:1"
       d="M 276.31579,430.70175 267.54386,400 c 0,0 -5.26316,11.40351 -3.50877,19.29825 1.75438,7.89473 6.14035,14.03508 6.14035,14.03508"
       id="path3029"
       inkscape:connector-curvature="0" />
    <path
       style="fill:none;stroke:#000000;stroke-width:1px;stroke-linecap:butt;stroke-linejoin:miter;stroke-opacity:1"
       d="m 227.19298,407.89474 0.8772,-9.64913 40.35087,2.63158 0,0"
       id="path3031"
       inkscape:connector-curvature="0" />
    <path
       style="fill:#f5f5f5;stroke:#000000;stroke-width:3;stroke-linecap:butt;stroke-linejoin:miter;stroke-miterlimit:4;stroke-opacity:1;stroke-dasharray:none;fill-opacity:1"
       d="m 208.77193,72.807018 79.82456,0.877193 4.38597,28.070179 -79.70299,3.50877 z"
       id="path3033"
       inkscape:connector-curvature="0"
       sodipodi:nodetypes="ccccc" />
    <path
       style="fill:none;stroke:#000000;stroke-width:1px;stroke-linecap:butt;stroke-linejoin:miter;stroke-opacity:1"
       d="m 349.60757,332.54694 -11.11573,5.02 c 0,0 4.30287,8.9643 5.37858,12.19145 1.07572,3.22714 2.51,6.81286 2.51,6.81286"
       id="path3043"
       inkscape:connector-curvature="0" />
    <path
       style="fill:none;stroke:#000000;stroke-width:1px;stroke-linecap:butt;stroke-linejoin:miter;stroke-opacity:1"
       d="m 349.249,336.49123 c 0,0 -4.30286,2.15143 -3.94429,5.37858 0.35857,3.22714 7.17144,12.19144 7.17144,12.19144"
       id="path3045"
       inkscape:connector-curvature="0" />
    <path
       style="fill:none;stroke:#000000;stroke-width:1px;stroke-linecap:butt;stroke-linejoin:miter;stroke-opacity:1"
       d="m 348.17328,318.56263 3.22715,26.89289"
       id="path3047"
       inkscape:connector-curvature="0" />
    <path
       style="fill:none;stroke:#000000;stroke-width:1px;stroke-linecap:butt;stroke-linejoin:miter;stroke-opacity:1"
       d="m 352.47615,314.97692 c 0,0 -5.02001,3.94429 -10.39859,4.30286 -5.37858,0.35857 -45.18005,-17.57002 -49.48292,-52.71007 -4.30286,-35.14004 17.57003,-80.67867 17.57003,-80.67867"
       id="path3049"
       inkscape:connector-curvature="0" />
    <path
       style="fill:none;stroke:#000000;stroke-width:1px;stroke-linecap:butt;stroke-linejoin:miter;stroke-opacity:1"
       d="m 306.93752,229.99538 3.58572,10.04002 5.73715,-9.32287"
       id="path3051"
       inkscape:connector-curvature="0" />
    <path
       style="fill:none;stroke:#000000;stroke-width:1px;stroke-linecap:butt;stroke-linejoin:miter;stroke-opacity:1"
       d="m 336.34041,228.91967 c 0,11.11573 0,11.11573 0,11.11573 l 8.24716,-7.53001"
       id="path3053"
       inkscape:connector-curvature="0" />
    <path
       style="fill:none;stroke:#000000;stroke-width:1px;stroke-linecap:butt;stroke-linejoin:miter;stroke-opacity:1"
       d="m 320.92182,234.65682 c 0,26.89289 -19.72145,26.53432 -19.72145,26.53432 0,0 0,6.81286 6.09572,10.39858 6.09572,3.58572 12.55002,2.51 12.55002,2.51"
       id="path3055"
       inkscape:connector-curvature="0" />
    <path
       style="fill:none;stroke:#000000;stroke-width:1px;stroke-linecap:butt;stroke-linejoin:miter;stroke-opacity:1"
       d="m 319.48753,269.79686 6.4543,1.79286"
       id="path3057"
       inkscape:connector-curvature="0" />
    <path
       style="fill:none;stroke:#000000;stroke-width:1px;stroke-linecap:butt;stroke-linejoin:miter;stroke-opacity:1"
       d="m 347.09757,297.40689 c 0,0 -13.9843,-9.32286 -20.08003,-8.24715 -6.09572,1.07572 -3.94429,8.60573 -3.94429,8.60573 0,0 -3.22714,3.94429 -1.79286,5.02 1.43429,1.07572 7.53001,5.02001 12.19145,4.66144 4.66143,-0.35858 13.62573,-10.04002 13.62573,-10.04002 z"
       id="path3059"
       inkscape:connector-curvature="0"
       sodipodi:nodetypes="cscssc" />
    <path
       style="fill:none;stroke:#000000;stroke-width:1px;stroke-linecap:butt;stroke-linejoin:miter;stroke-opacity:1"
       d="m 343.87042,296.33118 c -4.66143,-5.02001 -20.08002,1.79286 -20.08002,1.79286 0,0 1.43428,4.30286 7.53001,4.30286 6.09572,0 12.55001,-6.09572 12.55001,-6.09572 z"
       id="path3061"
       inkscape:connector-curvature="0" />
    <path
       style="fill:none;stroke:#000000;stroke-width:3;stroke-linecap:butt;stroke-linejoin:miter;stroke-miterlimit:4;stroke-opacity:1;stroke-dasharray:none"
       d="m 352.83472,139.2767 c -3.9443,-2.86858 -20.08003,4.30286 -20.08003,4.30286 l 0.71715,-0.35857"
       id="path3063"
       inkscape:connector-curvature="0"
       sodipodi:nodetypes="ccc" />
    <path
       style="fill:none;stroke:#000000;stroke-width:3;stroke-linecap:butt;stroke-linejoin:miter;stroke-miterlimit:4;stroke-opacity:1;stroke-dasharray:none"
       d="m 336.69898,146.80671 c 0,0 -25.4586,-10.39858 -39.80147,-2.51 -14.34288,7.88858 -26.53432,24.38288 -26.17575,35.85718 0.35857,11.4743 2.51,16.13574 7.53001,17.21145 5.02001,1.07572 7.88858,-1.79286 7.88858,-1.79286"
       id="path3065"
       inkscape:connector-curvature="0" />
    <path
       style="fill:none;stroke:#000000;stroke-width:3;stroke-linecap:butt;stroke-linejoin:miter;stroke-miterlimit:4;stroke-opacity:1;stroke-dasharray:none"
       d="m 302.27608,152.54386 c 0,0 -20.43859,17.92859 -23.30717,32.98861 -2.86857,15.06002 -1.43428,17.92859 1.79286,23.30717 3.22715,5.37858 16.49431,13.62573 16.49431,13.62573"
       id="path3069"
       inkscape:connector-curvature="0" />
    <path
       style="fill:none;stroke:#000000;stroke-width:3;stroke-linecap:butt;stroke-linejoin:miter;stroke-miterlimit:4;stroke-opacity:1;stroke-dasharray:none"
       d="m 297.61465,193.06248 c 0,0 0,-8.24715 0,-16.85288 0,-8.60572 10.04001,-16.4943 10.04001,-16.4943 0,0 -4.66143,21.15574 9.68144,34.06432 14.34288,12.90859 25.81718,16.13574 25.81718,16.13574"
       id="path3071"
       inkscape:connector-curvature="0" />
    <path
       style="fill:none;stroke:#000000;stroke-width:3;stroke-linecap:butt;stroke-linejoin:miter;stroke-miterlimit:4;stroke-opacity:1;stroke-dasharray:none"
       d="m 319.84611,160.07387 c 0,0 4.30286,20.79717 13.26716,33.70575 8.96429,12.90859 19.72145,19.36289 19.72145,19.36289"
       id="path3073"
       inkscape:connector-curvature="0" />
    <path
       style="fill:none;stroke:#000000;stroke-width:3;stroke-linecap:butt;stroke-linejoin:miter;stroke-miterlimit:4;stroke-opacity:1;stroke-dasharray:none"
       d="m 337.41613,156.12958 c 1.79286,28.68575 14.70144,45.18005 14.70144,45.18005"
       id="path3075"
       inkscape:connector-curvature="0" />
    <path
       style="fill:none;stroke:#000000;stroke-width:1px;stroke-linecap:butt;stroke-linejoin:miter;stroke-opacity:1"
       d="m 291.51893,270.514 c 0,0 -7.53001,8.9643 -12.19144,19.36289 -4.66144,10.39858 -11.11573,21.51431 -8.60573,23.66574 2.51,2.15143 33.34718,1.79286 33.34718,1.79286 l 0.35858,-8.9643 -17.9286,0 c 0,0 -1.79286,2.86858 -1.79286,5.73715 0,2.86858 1.79286,3.22715 1.79286,3.22715"
       id="path3077"
       inkscape:connector-curvature="0" />
    <path
       style="fill:none;stroke:#000000;stroke-width:1px;stroke-linecap:butt;stroke-linejoin:miter;stroke-opacity:1"
       d="m 285.78178,307.08833 c -7.17144,0 -7.17144,1.79286 -7.17144,-0.35857 0,-2.15143 16.49431,-29.04432 16.49431,-29.04432"
       id="path3079"
       inkscape:connector-curvature="0" />
    <path
       style="fill:none;stroke:#000000;stroke-width:1px;stroke-linecap:butt;stroke-linejoin:miter;stroke-opacity:1"
       d="m 300.12465,289.51831 c -1.66203,5.27036 -3.22424,10.64054 -3.94429,16.85288"
       id="path3081"
       inkscape:connector-curvature="0"
       sodipodi:nodetypes="cc" />
    <path
       style="fill:none;stroke:#000000;stroke-width:2;stroke-linecap:butt;stroke-linejoin:miter;stroke-miterlimit:4;stroke-opacity:1;stroke-dasharray:none;display:inline"
       d="m 176.77593,127.08526 c 0,0 1.79286,-3.94429 -1.07571,-9.32287 -2.86858,-5.37858 -13.26716,-13.62573 -13.26716,-13.62573"
       id="path3089"
       inkscape:connector-curvature="0" />
    <path
       style="fill:none;stroke:#000000;stroke-width:2;stroke-linecap:butt;stroke-linejoin:miter;stroke-miterlimit:4;stroke-opacity:1;stroke-dasharray:none;display:inline"
       d="m 153.11019,99.833793 c 0,0 -1.79286,-6.454294 3.22714,-5.378578 5.02001,1.075716 7.17144,5.020006 7.53001,7.888585 0.35858,2.86857 -0.35857,6.45429 -0.35857,6.45429"
       id="path3091"
       inkscape:connector-curvature="0" />
    <path
       style="fill:none;stroke:#000000;stroke-width:2;stroke-linecap:butt;stroke-linejoin:miter;stroke-miterlimit:4;stroke-opacity:1;stroke-dasharray:none;display:inline"
       d="m 115.81871,89.076637 c 0,0 -10.75715,-0.358572 -13.62573,-3.585719 -2.868572,-3.227147 -1.43429,-1.792859 -1.43429,-5.020006 0,-3.227147 5.73715,-7.530009 5.73715,-7.530009 0,0 -6.45429,3.227147 -7.888576,5.73715 -1.434288,2.510003 -4.302863,7.888581 -4.302863,7.888581 0,0 -0.358572,-2.510003 -0.358572,-6.095722 0,-3.585719 7.171441,-10.398584 7.171441,-10.398584 0,0 -8.247156,2.151431 -11.832875,10.398584 -3.585718,8.247153 -3.585718,14.701447 -3.585718,14.701447 0,0 -2.868575,-4.302863 -8.605725,-3.944291 -5.73715,0.358572 -14.701447,1.075716 -14.701447,1.075716 0,0 5.020006,2.868575 8.605725,3.227147 3.585719,0.358571 8.247153,1.792859 8.247153,1.792859 0,0 -7.171437,-1.434288 -16.852878,7.53001 -9.68144,8.9643 -9.68144,17.57002 -9.68144,17.57002 0,0 2.510003,-4.66143 9.68144,-8.96429 7.171437,-4.30287 11.115728,-6.81287 11.115728,-6.81287 0,0 -14.701447,16.13573 -15.060018,24.38289 -0.358572,8.24715 0.358571,9.68144 0.358571,9.68144 0,0 0.717144,-7.53001 6.454294,-12.55002 5.73715,-5.02 9.68144,-9.68144 9.68144,-9.68144 0,0 -11.832871,12.19145 -12.191443,17.57002 -0.358572,5.37858 0.358572,8.24716 0.358572,8.24716"
       id="path3093"
       inkscape:connector-curvature="0" />
    <path
       style="fill:none;stroke:#000000;stroke-width:2;stroke-linecap:butt;stroke-linejoin:miter;stroke-miterlimit:4;stroke-opacity:1;stroke-dasharray:none;display:inline"
       d="m 72.072946,135.33241 3.227146,27.96861 6.454294,-13.98431 c 0,0 -3.227147,13.26716 0,19.36288 3.227147,6.09573 10.398584,9.68144 10.398584,9.68144"
       id="path3095"
       inkscape:connector-curvature="0" />
    <path
       style="fill:none;stroke:#000000;stroke-width:2;stroke-linecap:butt;stroke-linejoin:miter;stroke-miterlimit:4;stroke-opacity:1;stroke-dasharray:none;display:inline"
       d="m 72.072946,144.29671 c -19.721453,-2.86858 -21.155741,4.30286 -22.590028,14.70144 -1.434288,10.39859 1.075715,17.9286 6.095722,17.9286 5.020006,0 8.964296,-5.02001 8.964296,-5.02001 0,0 -1.075715,11.83287 11.832872,12.55002 12.908587,0.71714 11.115728,-4.30287 11.115728,-4.30287 0,0 1.075715,6.4543 3.585719,3.58572 2.510003,-2.86857 2.868574,-4.30286 2.868574,-4.30286"
       id="path3097"
       inkscape:connector-curvature="0" />
    <path
       style="fill:none;stroke:#000000;stroke-width:3;stroke-linecap:butt;stroke-linejoin:miter;stroke-miterlimit:4;stroke-opacity:1;stroke-dasharray:none;display:inline"
       d="m 155.26162,115.96953 c 0,0 2.32537,-11.27799 1.12875,-12.85555 -1.19661,-1.57756 -10.81019,-4.714474 -19.05734,-8.658765 -8.24716,-3.944291 -16.85288,-11.832872 -18.64574,-9.322869 -1.79286,2.510003 -2.86858,13.625731 -2.86858,13.625731 0,0 -21.155737,-9.322868 -25.458599,-4.661434 -4.302863,4.661434 -1.075716,22.590027 -4.661434,29.402897 -3.585719,6.81286 -10.040013,14.70144 -5.020007,16.85288 5.020007,2.15143 11.4743,-0.35858 11.4743,-0.35858 0,0 -7.171437,26.17575 -3.94429,31.19576 3.227146,5.02 31.19575,29.04432 59.16436,16.13573 27.9686,-12.90859 36.59444,-49.14021 32.63004,-54.14435 -4.45873,-5.62812 -24.74146,-17.21145 -24.74146,-17.21145 z"
       id="path3099"
       inkscape:connector-curvature="0"
       sodipodi:nodetypes="czsscssscsssc" />
    <path
       style="fill:none;stroke:#000000;stroke-width:4;stroke-linecap:butt;stroke-linejoin:miter;stroke-miterlimit:4;stroke-opacity:1;stroke-dasharray:none;display:inline"
       d="m 97.89012,149.67528 c -0.717149,58.44722 102.19298,7.88859 65.97722,-20.08002"
       id="path3101"
       inkscape:connector-curvature="0"
       sodipodi:nodetypes="cc" />
    <path
       style="fill:none;stroke:#000000;stroke-width:1px;stroke-linecap:butt;stroke-linejoin:miter;stroke-opacity:1;display:inline"
       d="M 73.865805,134.25669 87.132964,109.87381"
       id="path3103"
       inkscape:connector-curvature="0" />
    <path
       style="fill:none;stroke:#000000;stroke-width:1px;stroke-linecap:butt;stroke-linejoin:miter;stroke-opacity:1;display:inline"
       d="M 72.072946,128.87812 85.340105,105.57094"
       id="path3105"
       inkscape:connector-curvature="0" />
    <path
       style="fill:none;stroke:#000000;stroke-width:1px;stroke-linecap:butt;stroke-linejoin:miter;stroke-opacity:1;display:inline"
       d="M 71.355802,119.19668 81.754386,104.13666"
       id="path3107"
       inkscape:connector-curvature="0" />
    <path
       style="fill:none;stroke:#000000;stroke-width:1px;stroke-linecap:butt;stroke-linejoin:miter;stroke-opacity:1;display:inline"
       d="m 83.188673,142.50385 -0.358571,5.37858"
       id="path3109"
       inkscape:connector-curvature="0" />
    <path
       style="fill:none;stroke:#000000;stroke-width:1px;stroke-linecap:butt;stroke-linejoin:miter;stroke-opacity:1;display:inline"
       d="m 87.491536,142.14528 c -3.585719,15.06001 -3.585719,15.06001 -3.585719,15.06001"
       id="path3111"
       inkscape:connector-curvature="0" />
    <path
       style="fill:none;stroke:#000000;stroke-width:1px;stroke-linecap:butt;stroke-linejoin:miter;stroke-opacity:1;display:inline"
       d="m 169.96307,162.2253 c 0,0 -7.88859,9.68144 -13.98431,13.62573 -6.09572,3.94429 -13.26716,7.17144 -13.26716,7.17144"
       id="path3113"
       inkscape:connector-curvature="0" />
    <path
       style="fill:none;stroke:#000000;stroke-width:1px;stroke-linecap:butt;stroke-linejoin:miter;stroke-opacity:1;display:inline"
       d="m 141.99446,145.01385 c 0,0 2.86857,4.30286 4.30286,7.88858 1.43429,3.58572 3.58572,7.88858 3.58572,7.88858"
       id="path3115"
       inkscape:connector-curvature="0" />
    <path
       style="fill:#000000;stroke:#000000;stroke-width:1px;stroke-linecap:butt;stroke-linejoin:miter;stroke-opacity:1;display:inline"
       d="m 95.240422,126.8032 c 4.463231,-7.89399 9.858668,-9.02382 10.179708,-24.10083 2.99912,-3.162746 4.61686,-1.12694 5.95869,2.64437 -0.89427,4.59025 0.59728,7.97042 -3.79925,12.56068 0,0 -4.08922,0.59148 -6.66251,4.3607 -3.369512,4.9355 -5.676638,4.53508 -5.676638,4.53508 z"
       id="path3117"
       inkscape:connector-curvature="0"
       sodipodi:nodetypes="ccccsc" />
    <path
       style="fill:#000000;stroke:#000000;stroke-width:1px;stroke-linecap:butt;stroke-linejoin:miter;stroke-opacity:1;display:inline"
       d="m 116.16662,99.836465 c 0,0 2.87924,-1.795531 4.6721,-0.361244 1.79286,1.434289 7.95443,7.677709 13.69158,8.753419 5.73715,1.07572 11.48496,4.14984 11.48496,4.14984 0,0 -7.26597,-0.0567 -14.91232,-2.99761 -4.66143,-1.79286 -6.96856,-4.74594 -11.12106,-5.09918 -3.23532,-0.27522 -3.81526,-4.445225 -3.81526,-4.445225 z"
       id="path3119"
       inkscape:connector-curvature="0"
       sodipodi:nodetypes="csscssc" />
    <path
       style="fill:none;stroke:#000000;stroke-width:1px;stroke-linecap:butt;stroke-linejoin:miter;stroke-opacity:1;display:inline"
       d="m 73.865805,152.90243 c -20.080025,-7.88858 -17.21145,15.77716 -17.21145,15.77716"
       id="path3121"
       inkscape:connector-curvature="0" />
    <path
       style="fill:none;stroke:#000000;stroke-width:1px;stroke-linecap:butt;stroke-linejoin:miter;stroke-opacity:1;display:inline"
       d="m 69.562942,151.46814 c -7.530009,0 1.075716,19.72146 1.075716,19.72146"
       id="path3123"
       inkscape:connector-curvature="0"
       sodipodi:nodetypes="cc" />
    <path
       style="fill:none;stroke:#000000;stroke-width:1px;stroke-linecap:butt;stroke-linejoin:miter;stroke-opacity:1;display:inline"
       d="m 141.63589,144.65528 c 0,0 3.22714,3.58572 5.37858,8.60572 2.15143,5.02001 2.86857,8.9643 2.86857,8.9643"
       id="path3125"
       inkscape:connector-curvature="0" />
    <path
       style="fill:none;stroke:#000000;stroke-width:1px;stroke-linecap:butt;stroke-linejoin:miter;stroke-opacity:1;display:inline"
       d="m 149.1659,136.7667 c 0,0 1.43428,-7.53001 -1.43429,-10.39859 -2.86858,-2.86857 -6.45429,-1.43428 -6.45429,-1.43428"
       id="path3127"
       inkscape:connector-curvature="0" />
    <path
       style="fill:none;stroke:#000000;stroke-width:1px;stroke-linecap:butt;stroke-linejoin:miter;stroke-opacity:1;display:inline"
       d="m 141.99446,127.08526 c 0,0 -2.86858,-7.17144 -7.88858,-5.02001 -5.02001,2.15143 -6.81287,11.4743 -6.81287,11.4743 0,0 -12.55001,1.43429 -10.75715,5.37858 1.79286,3.94429 9.32287,6.45429 9.32287,6.45429"
       id="path3129"
       inkscape:connector-curvature="0" />
    <path
       style="fill:none;stroke:#000000;stroke-width:1px;stroke-linecap:butt;stroke-linejoin:miter;stroke-opacity:1;display:inline"
       d="m 125.85873,141.7867 c -3.22715,-11.4743 10.04001,-1.07571 10.04001,-1.07571"
       id="path3131"
       inkscape:connector-curvature="0" />
    <path
       style="fill:none;stroke:#000000;stroke-width:1px;stroke-linecap:butt;stroke-linejoin:miter;stroke-opacity:1;display:inline"
       d="m 145.93875,130.67098 c 0,0 -2.86857,2.15143 -2.86857,5.73715 0,3.58571 0,7.53 0,7.53"
       id="path3133"
       inkscape:connector-curvature="0" />
    <path
       style="fill:none;stroke:#000000;stroke-width:1px;stroke-linecap:butt;stroke-linejoin:miter;stroke-opacity:1;display:inline"
       d="m 128.01016,126.36811 c 0,0 -0.35857,-1.79286 -3.22715,0.35858 -2.86857,2.15143 -5.37858,4.30286 -5.37858,4.30286"
       id="path3135"
       inkscape:connector-curvature="0" />
    <path
       style="fill:none;stroke:#000000;stroke-width:1px;stroke-linecap:butt;stroke-linejoin:miter;stroke-opacity:1;display:inline"
       d="m 156.69591,105.21237 16.13573,22.59003"
       id="path3137"
       inkscape:connector-curvature="0" />
    <path
       style="fill:#ffe4e1;stroke:#f08080;stroke-width:1px;stroke-linecap:butt;stroke-linejoin:miter;stroke-opacity:1;display:inline"
       d="m 114.743,61.825175 c 6.81286,-4.302862 10.04001,2.510003 4.66143,6.812865 -5.37858,4.302863 -6.45429,7.53001 -6.45429,7.53001 0,0 -1.07572,-3.227147 -3.94429,-5.73715 -2.86858,-2.510003 -6.09572,-9.681441 -2.15143,-11.115728 3.94429,-1.434288 7.88858,2.510003 7.88858,2.510003 z"
       id="path3139"
       inkscape:connector-curvature="0" />
    <path
       style="fill:#ffe4e1;stroke:#f08080;stroke-width:0.99999994px;stroke-linecap:butt;stroke-linejoin:miter;stroke-opacity:1;display:inline"
       d="m 93.53792,39.926608 c 7.55256,-6.73882 13.34747,0.62555 7.61184,7.02607 -5.73562,6.40054 -6.28985,10.50319 -6.28985,10.50319 0,0 -2.17119,-3.59521 -6.43389,-5.91226 -4.26274,-2.31703 -10.14745,-10.10906 -5.51014,-12.75001 4.6373,-2.64095 10.62204,1.13301 10.62204,1.13301 z"
       id="path3139-7"
       inkscape:connector-curvature="0" />
    <path
       style="fill:#ffe4e1;stroke:#f08080;stroke-width:0.99999994px;stroke-linecap:butt;stroke-linejoin:miter;stroke-opacity:1;display:inline"
       d="m 73.15696,64.131798 c 5.72695,-5.06441 10.12111,0.47012 5.7719,5.2803 -4.3492,4.81019 -4.76946,7.89345 -4.76946,7.89345 0,0 -1.64637,-2.7019 -4.87869,-4.44323 -3.23235,-1.74132 -7.6946,-7.59726 -4.17823,-9.58201 3.51637,-1.98475 8.05448,0.85149 8.05448,0.85149 z"
       id="path3139-7-0"
       inkscape:connector-curvature="0" />
    <path
       style="fill:#ffe4e1;stroke:#f08080;stroke-width:0.99999988px;stroke-linecap:butt;stroke-linejoin:miter;stroke-opacity:1;display:inline"
       d="m 44.4848,73.550368 c 6.01738,-9.34532 13.06425,-2.31427 8.74317,6.23627 -4.32109,8.55054 -4.06323,13.32419 -4.06323,13.32419 0,0 -2.80233,-3.58148 -7.38501,-5.24115 -4.58271,-1.65965 -11.79957,-9.15488 -7.81472,-13.19724 3.98482,-4.04235 10.51979,-1.12207 10.51979,-1.12207 z"
       id="path3139-7-8"
       inkscape:connector-curvature="0" />
    <path
       style="fill:none;stroke:#000000;stroke-width:2;stroke-linecap:butt;stroke-linejoin:miter;stroke-miterlimit:4;stroke-opacity:1;stroke-dasharray:none;display:inline"
       d="m 155.62019,367.32841 c -14.34287,2.51 -6.45429,11.83287 0.35857,11.4743 6.81287,-0.35857 9.93394,-3.79788 9.93394,-7.3836 0,-3.58572 -10.29251,-4.0907 -10.29251,-4.0907 z"
       id="path3184"
       inkscape:connector-curvature="0"
       sodipodi:nodetypes="cssc" />
    <path
       style="fill:none;stroke:#000000;stroke-width:2;stroke-linecap:butt;stroke-linejoin:miter;stroke-miterlimit:4;stroke-opacity:1;stroke-dasharray:none;display:inline"
       d="m 144.50446,368.04555 c 0,0 11.4743,-2.86857 23.30717,-2.86857 11.83288,0 29.04433,-0.35857 29.04433,-0.35857"
       id="path3186"
       inkscape:connector-curvature="0" />
    <path
       style="fill:none;stroke:#000000;stroke-width:3;stroke-linecap:butt;stroke-linejoin:miter;stroke-miterlimit:4;stroke-opacity:1;stroke-dasharray:none;display:inline"
       d="m 183.94737,347.96553 c 0,0 -5.73715,-2.15143 -5.73715,1.43429 0,3.58571 1.07571,10.75715 1.07571,10.75715 0,0 -11.4743,-8.24715 -23.66574,-6.81286 -12.19144,1.43428 -10.75716,14.70144 -10.75716,14.70144"
       id="path3188"
       inkscape:connector-curvature="0" />
    <path
       style="fill:none;stroke:#000000;stroke-width:1px;stroke-linecap:butt;stroke-linejoin:miter;stroke-opacity:1;display:inline"
       d="m 181.79594,328.60265 c 0,0 3.58572,5.37857 3.58572,11.4743 0,6.09572 0,13.62573 0,13.62573 l 11.11572,-0.35857"
       id="path3190"
       inkscape:connector-curvature="0" />
    <path
       style="fill:none;stroke:#000000;stroke-width:1px;stroke-linecap:butt;stroke-linejoin:miter;stroke-opacity:1;display:inline"
       d="m 196.13881,327.52693 -54.50292,0.35857 -3.22715,-3.58572"
       id="path3192"
       inkscape:connector-curvature="0" />
    <path
       style="fill:#a77660;stroke:#000000;stroke-width:3;stroke-linecap:butt;stroke-linejoin:miter;stroke-miterlimit:4;stroke-opacity:1;stroke-dasharray:none;display:inline;fill-opacity:1"
       d="m 166.73592,306.37119 c -20.4386,0.71714 -37.65005,31.19575 -44.10434,32.98861 -6.45429,1.79286 -14.70145,-12.55001 -19.72145,-13.9843 -5.02001,-1.43429 -10.040016,-0.35857 -10.040016,-0.35857 0,0 -6.812866,14.34287 -8.964297,14.70144 -2.151431,0.35858 -15.060018,-20.08002 -19.362881,-17.21144 -4.302862,2.86857 -6.454293,10.04001 0.717144,18.28716 7.171437,8.24715 15.060018,15.41859 19.004309,14.70145 3.944291,-0.71715 15.41859,-24.74146 21.872881,-19.36288 6.4543,5.37857 -1.07571,18.28716 -1.07571,18.28716 0,0 -8.605727,12.90859 -19.362883,14.34288 -10.757157,1.43428 -39.801478,-35.49862 -39.801478,-35.49862 0,0 3.944291,-23.66574 16.852878,-25.4586 12.908587,-1.79286 20.797168,13.9843 20.797168,13.9843 0,0 2.868575,-16.4943 11.4743,-17.57002 8.605725,-1.07572 22.948595,21.87288 22.948595,21.87288 0,0 7.88859,-13.9843 17.57003,-20.08002 9.68144,-6.09572 16.4943,-11.11573 21.87288,-9.68144 5.37858,1.43429 12.90859,8.24715 12.90859,8.24715"
       id="path3194"
       inkscape:connector-curvature="0" />
    <path
       style="fill:none;stroke:#000000;stroke-width:1px;stroke-linecap:butt;stroke-linejoin:miter;stroke-opacity:1;display:inline"
       d="m 149.1659,314.61834 c 1.43428,3.94429 1.43428,3.94429 1.43428,3.94429 l 18.28717,-1.79285 -7.88858,-8.60573"
       id="path3196"
       inkscape:connector-curvature="0" />
    <path
       style="fill:none;stroke:#000000;stroke-width:1px;stroke-linecap:butt;stroke-linejoin:miter;stroke-opacity:1;display:inline"
       d="m 149.88304,296.33118 -17.57002,-24.38289 -1.07572,3.22715"
       id="path3198"
       inkscape:connector-curvature="0" />
    <path
       style="fill:none;stroke:#000000;stroke-width:1px;stroke-linecap:butt;stroke-linejoin:miter;stroke-opacity:1;display:inline"
       d="m 147.37304,298.84118 c -22.23146,-27.25146 -18.28717,-28.32718 -22.23146,-27.25146 -3.94429,1.07572 -3.94429,6.45429 -3.94429,6.45429 l 16.13574,25.45861"
       id="path3200"
       inkscape:connector-curvature="0" />
    <path
       style="fill:none;stroke:#000000;stroke-width:1px;stroke-linecap:butt;stroke-linejoin:miter;stroke-opacity:1;display:inline"
       d="m 122.99015,264.77685 c 6.81287,-4.66143 8.9643,2.86858 5.37858,5.37858 -3.58572,2.51001 -5.02001,2.51001 -5.02001,2.51001"
       id="path3202"
       inkscape:connector-curvature="0" />
    <path
       style="fill:none;stroke:#000000;stroke-width:1px;stroke-linecap:butt;stroke-linejoin:miter;stroke-opacity:1;display:inline"
       d="m 122.99015,269.79686 c 0,0 -6.09572,-12.55001 -12.19144,-11.83287 -6.09572,0.71714 -11.115731,6.81286 -10.75716,12.90859 0.35857,6.09572 4.66144,10.75715 11.83287,10.39858 7.17144,-0.35857 11.11573,-11.4743 11.11573,-11.4743 z"
       id="path3204"
       inkscape:connector-curvature="0" />
    <path
       style="fill:none;stroke:#000000;stroke-width:1px;stroke-linecap:butt;stroke-linejoin:miter;stroke-opacity:1;display:inline"
       d="m 107.21299,258.68113 c 0,0 9.68144,5.37858 10.39858,11.4743 0.71715,6.09572 -4.66143,11.83287 -4.66143,11.83287"
       id="path3206"
       inkscape:connector-curvature="0" />
    <path
       style="fill:none;stroke:#000000;stroke-width:1px;stroke-linecap:butt;stroke-linejoin:miter;stroke-opacity:1;display:inline"
       d="m 83.547245,236.80825 c 0,0 10.398584,-5.37858 23.665745,-5.02001 13.26716,0.35857 25.81717,-1.43428 25.81717,-1.43428"
       id="path3208"
       inkscape:connector-curvature="0" />
    <path
       style="fill:none;stroke:#000000;stroke-width:1px;stroke-linecap:butt;stroke-linejoin:miter;stroke-opacity:1;display:inline"
       d="m 139.12588,231.42967 c 0,0 19.72146,31.55433 17.9286,38.00862 -1.79286,6.45429 -17.21145,10.04001 -17.21145,10.04001"
       id="path3210"
       inkscape:connector-curvature="0" />
    <path
       style="fill:none;stroke:#000000;stroke-width:1px;stroke-linecap:butt;stroke-linejoin:miter;stroke-opacity:1;display:inline"
       d="m 125.14158,285.93259 c 0,0 -14.34287,2.15144 -21.87288,-0.35857 -7.530011,-2.51 -27.251464,-24.02431 -27.251464,-43.74577 0,-19.72145 9.681441,-14.70144 15.060019,-14.34287 5.378578,0.35857 36.215755,-6.45429 40.160045,-7.17144 3.94429,-0.71714 12.90859,0.35857 21.87289,15.77716 8.96429,15.4186 16.13573,31.19576 11.83287,35.49862 -4.30286,4.30286 -26.89289,7.88858 -26.89289,7.88858"
       id="path3212"
       inkscape:connector-curvature="0" />
    <path
       style="fill:none;stroke:#000000;stroke-width:1px;stroke-linecap:butt;stroke-linejoin:miter;stroke-opacity:1;display:inline"
       d="m 192.19452,266.92829 c 0,0 -11.11573,25.81717 -16.13573,27.9686 -5.02001,2.15143 -10.75716,2.15143 -10.75716,2.15143"
       id="path3214"
       inkscape:connector-curvature="0" />
    <path
       style="fill:none;stroke:#000000;stroke-width:1px;stroke-linecap:butt;stroke-linejoin:miter;stroke-opacity:1;display:inline"
       d="M 196.49738,306.37119 170.32164,304.9369"
       id="path3216"
       inkscape:connector-curvature="0" />
    <path
       style="fill:none;stroke:#000000;stroke-width:1px;stroke-linecap:butt;stroke-linejoin:miter;stroke-opacity:1;display:inline"
       d="m 175.70022,313.9012 11.4743,-5.73715"
       id="path3218"
       inkscape:connector-curvature="0" />
    <path
       style="fill:none;stroke:#000000;stroke-width:1px;stroke-linecap:butt;stroke-linejoin:miter;stroke-opacity:1;display:inline"
       d="m 181.43737,314.97692 14.34287,-5.37858"
       id="path3220"
       inkscape:connector-curvature="0" />
    <path
       style="fill:none;stroke:#000000;stroke-width:1px;stroke-linecap:butt;stroke-linejoin:miter;stroke-opacity:1;display:inline"
       d="m 87.491536,226.40966 c 2.868575,-25.81717 -1.792859,-26.17574 2.868575,-25.81717 4.661434,0.35857 12.550019,3.58572 26.534319,2.51 13.9843,-1.07571 25.4586,-6.09572 25.4586,-6.09572"
       id="path3222"
       inkscape:connector-curvature="0" />
    <path
       style="fill:none;stroke:#000000;stroke-width:1px;stroke-linecap:butt;stroke-linejoin:miter;stroke-opacity:1;display:inline"
       d="m 142.35303,201.66821 c 0,0 1.83232,-11.41477 13.26716,-10.39859 11.75494,1.04462 31.9129,40.51862 31.9129,40.51862 l -12.90859,29.76147 c 0,0 -6.09572,-16.49431 -10.75716,-26.17575 -4.66143,-9.68144 -13.62573,-22.9486 -13.62573,-22.9486"
       id="path3224"
       inkscape:connector-curvature="0"
       sodipodi:nodetypes="csccsc" />
    <path
       style="fill:none;stroke:#000000;stroke-width:1px;stroke-linecap:butt;stroke-linejoin:miter;stroke-opacity:1;display:inline"
       d="m 140.2016,213.50108 c 8.60573,15.41859 20.79717,15.77716 20.79717,15.77716"
       id="path3226"
       inkscape:connector-curvature="0" />
    <path
       style="fill:none;stroke:#000000;stroke-width:1px;stroke-linecap:butt;stroke-linejoin:miter;stroke-opacity:1;display:inline"
       d="m 104.70299,225.69252 c 0,0 -3.58572,-2.15143 -7.530014,-8.60572 -3.94429,-6.4543 -5.378578,-11.4743 -5.378578,-11.4743"
       id="path3228"
       inkscape:connector-curvature="0" />
    <path
       style="fill:none;stroke:#000000;stroke-width:1px;stroke-linecap:butt;stroke-linejoin:miter;stroke-opacity:1;display:inline"
       d="m 94.662973,201.30963 0.358572,-10.75715 25.817175,-0.35857 c 0,0 5.37858,1.43428 10.75716,1.43428 5.37857,0 13.26715,-2.15143 13.26715,-2.15143 l 1.07572,5.37858"
       id="path3230"
       inkscape:connector-curvature="0" />
    <path
       style="fill:none;stroke:#000000;stroke-width:1px;stroke-linecap:butt;stroke-linejoin:miter;stroke-opacity:1;display:inline"
       d="m 183.23022,222.1068 c 4.30287,-6.81286 13.62574,-8.60572 13.62574,-8.60572"
       id="path3232"
       inkscape:connector-curvature="0" />
    <path
       style="fill:none;stroke:#000000;stroke-width:1px;stroke-linecap:butt;stroke-linejoin:miter;stroke-opacity:1;display:inline"
       d="m 187.53309,230.50539 c 7.53001,1.07571 9.32287,-2.51001 9.32287,-2.51001"
       id="path3234"
       inkscape:connector-curvature="0" />
    <path
       style="fill:none;stroke:#000000;stroke-width:1px;stroke-linecap:butt;stroke-linejoin:miter;stroke-opacity:1;display:inline"
       d="m 176.77593,257.24685 c 4.66144,1.07571 4.66144,1.07571 4.66144,1.07571 0,0 -1.43429,10.75716 1.43428,10.75716 2.86858,0 13.62573,-4.66144 13.62573,-4.66144"
       id="path3236"
       inkscape:connector-curvature="0" />
    <path
       style="fill:none;stroke:#000000;stroke-width:2;stroke-linecap:butt;stroke-linejoin:miter;stroke-miterlimit:4;stroke-opacity:1;stroke-dasharray:none;display:inline"
       d="m 133.03016,90.510924 -0.71714,-22.231455 60.59865,0.717143"
       id="path3238"
       inkscape:connector-curvature="0" />
    <path
       style="fill:none;stroke:#000000;stroke-width:2;stroke-linecap:butt;stroke-linejoin:miter;stroke-miterlimit:4;stroke-opacity:1;stroke-dasharray:none;display:inline"
       d="m 157.77162,184.81533 39.08434,-0.35857"
       id="path3240"
       inkscape:connector-curvature="0" />
    <path
       style="fill:none;stroke:#000000;stroke-width:1px;stroke-linecap:butt;stroke-linejoin:miter;stroke-opacity:1;display:inline"
       d="m 185.02308,83.698059 0.35858,87.491541"
       id="path3242"
       inkscape:connector-curvature="0" />
    <path
       style="fill:none;stroke:#000000;stroke-width:1px;stroke-linecap:butt;stroke-linejoin:miter;stroke-opacity:1;display:inline"
       d="m 168.17021,170.47245 29.04432,-1.07571"
       id="path3244"
       inkscape:connector-curvature="0" />
    <path
       style="fill:none;stroke:#000000;stroke-width:1px;stroke-linecap:butt;stroke-linejoin:miter;stroke-opacity:1;display:inline"
       d="m 174.6245,162.58387 21.51431,-0.71714"
       id="path3246"
       inkscape:connector-curvature="0" />
    <path
       style="fill:none;stroke:#000000;stroke-width:1px;stroke-linecap:butt;stroke-linejoin:miter;stroke-opacity:1;display:inline"
       d="m 178.21022,156.12958 c 18.64574,0 18.64574,0 18.64574,0"
       id="path3248"
       inkscape:connector-curvature="0" />
    <path
       style="fill:none;stroke:#000000;stroke-width:1px;stroke-linecap:butt;stroke-linejoin:miter;stroke-opacity:1;display:inline"
       d="m 180.00308,147.88243 16.13573,-0.71715"
       id="path3250"
       inkscape:connector-curvature="0" />
    <path
       style="fill:none;stroke:#000000;stroke-width:1px;stroke-linecap:butt;stroke-linejoin:miter;stroke-opacity:1;display:inline"
       d="m 182.51308,137.48384 13.9843,0"
       id="path3252"
       inkscape:connector-curvature="0" />
    <path
       style="fill:none;stroke:#000000;stroke-width:1px;stroke-linecap:butt;stroke-linejoin:miter;stroke-opacity:1;display:inline"
       d="m 179.28593,130.3124 16.85288,1.07572"
       id="path3254"
       inkscape:connector-curvature="0" />
    <path
       style="fill:none;stroke:#000000;stroke-width:1px;stroke-linecap:butt;stroke-linejoin:miter;stroke-opacity:1;display:inline"
       d="m 176.77593,122.42382 19.36288,0.35857"
       id="path3256"
       inkscape:connector-curvature="0" />
    <path
       style="fill:none;stroke:#000000;stroke-width:1px;stroke-linecap:butt;stroke-linejoin:miter;stroke-opacity:1;display:inline"
       d="m 176.41736,114.17667 19.36288,0"
       id="path3258"
       inkscape:connector-curvature="0" />
    <path
       style="fill:none;stroke:#000000;stroke-width:1px;stroke-linecap:butt;stroke-linejoin:miter;stroke-opacity:1;display:inline"
       d="m 168.52878,105.57094 27.25146,2.15144"
       id="path3260"
       inkscape:connector-curvature="0" />
    <path
       style="fill:none;stroke:#000000;stroke-width:1px;stroke-linecap:butt;stroke-linejoin:miter;stroke-opacity:1;display:inline"
       d="m 163.50877,95.889502 c 0,0 15.41859,3.227147 21.87289,3.227147 6.45429,0 10.75715,0 10.75715,0"
       id="path3262"
       inkscape:connector-curvature="0" />
    <path
       style="fill:none;stroke:#000000;stroke-width:1px;stroke-linecap:butt;stroke-linejoin:miter;stroke-opacity:1;display:inline"
       d="m 143.07018,89.435209 c 26.53431,-0.358572 19.0043,-1.79286 27.25146,-0.358572 8.24715,1.434287 11.83287,3.227147 16.4943,3.227147 4.66144,0 8.60573,0 8.60573,0"
       id="path3264"
       inkscape:connector-curvature="0" />
    <path
       style="fill:none;stroke:#000000;stroke-width:1px;stroke-linecap:butt;stroke-linejoin:miter;stroke-opacity:1;display:inline"
       d="m 139.12588,81.546628 c 27.25147,2.151431 27.96861,0.717143 35.49862,1.075715 7.53001,0.358572 20.4386,0.358572 20.4386,0.358572"
       id="path3266"
       inkscape:connector-curvature="0" />
    <path
       style="fill:none;stroke:#000000;stroke-width:1px;stroke-linecap:butt;stroke-linejoin:miter;stroke-opacity:1;display:inline"
       d="m 154.1859,82.263771 1.43429,12.550016"
       id="path3268"
       inkscape:connector-curvature="0" />
    <path
       style="fill:none;stroke:#000000;stroke-width:1px;stroke-linecap:butt;stroke-linejoin:miter;stroke-opacity:1;display:inline"
       d="m 214.06741,79.395197 c 0,0 1.07571,21.514313 2.15143,21.155743 1.07571,-0.35857 22.23145,-2.151434 22.23145,-2.151434 l -2.86857,-20.797169 z"
       id="path3270"
       inkscape:connector-curvature="0" />
    <path
       style="fill:none;stroke:#000000;stroke-width:1px;stroke-linecap:butt;stroke-linejoin:miter;stroke-opacity:1;display:inline"
       d="m 240.60172,77.243765 1.79286,21.514312 24.74146,0.717144 -2.86857,-20.438596 z"
       id="path3272"
       inkscape:connector-curvature="0" />
    <path
       sodipodi:type="arc"
       style="color:#000000;fill:#000000;fill-opacity:1;fill-rule:nonzero;stroke:none;stroke-width:0.75;marker:none;visibility:visible;display:inline;overflow:visible;enable-background:accumulate"
       id="path4287"
       sodipodi:cx="113.07099"
       sodipodi:cy="125.69479"
       sodipodi:rx="2.5269248"
       sodipodi:ry="3.3810968"
       d="m 115.59792,125.69479 a 2.5269248,3.3810968 0 1 1 -5.05385,0 2.5269248,3.3810968 0 1 1 5.05385,0 z"
       transform="matrix(0.93338647,-0.35887282,0.35887282,0.93338647,-37.006939,48.666356)" />
    <path
       sodipodi:type="arc"
       style="color:#000000;fill:#000000;fill-opacity:1;fill-rule:nonzero;stroke:none;stroke-width:0.75;marker:none;visibility:visible;display:inline;overflow:visible;enable-background:accumulate"
       id="path4287-1"
       sodipodi:cx="113.07099"
       sodipodi:cy="125.69479"
       sodipodi:rx="2.5269248"
       sodipodi:ry="3.3810968"
       d="m 115.59792,125.69479 a 2.5269248,3.3810968 0 1 1 -5.05385,0 2.5269248,3.3810968 0 1 1 5.05385,0 z"
       transform="matrix(0.99902043,-0.04425142,0.04425142,0.99902043,10.457541,-1.5287421)" />
    <path
       style="fill:none;stroke:#000000;stroke-width:1px;stroke-linecap:butt;stroke-linejoin:miter;stroke-opacity:1;display:inline"
       d="m 311.59895,318.56263 c 0,0 -17.57002,15.41859 -11.83287,30.83719 5.73715,15.41859 19.72145,15.41859 19.72145,15.41859"
       id="path3085"
       inkscape:connector-curvature="0" />
    <path
       style="fill:none;stroke:#000000;stroke-width:1px;stroke-linecap:butt;stroke-linejoin:miter;stroke-opacity:1;display:inline"
       d="m 339.47368,371.05263 c 2.63158,21.92983 -9.64912,42.98246 -4.38596,49.12281 5.26316,6.14035 9.64912,14.03509 9.64912,14.03509"
       id="path3039"
       inkscape:connector-curvature="0" />
    <path
       style="fill:none;stroke:#000000;stroke-width:1px;stroke-linecap:butt;stroke-linejoin:miter;stroke-opacity:1;display:inline"
       d="m 339.47368,344.73684 c 0,0 -27.70966,21.63832 -22.80701,28.07018 6.01772,7.89473 18.4933,57.01754 14.91228,57.01754"
       id="path3041"
       inkscape:connector-curvature="0"
       sodipodi:nodetypes="csc" />
    <path
       style="fill:none;stroke:#000000;stroke-width:1px;stroke-linecap:butt;stroke-linejoin:miter;stroke-opacity:1;display:inline"
       d="m 293.31179,316.76978 c 0,24.02431 10.04001,29.04432 12.90859,30.4786 2.86857,1.43429 7.17143,3.58572 7.17143,3.58572"
       id="path3083"
       inkscape:connector-curvature="0" />
    <path
       style="fill:#dffff4;stroke:none;stroke-width:1px;stroke-linecap:butt;stroke-linejoin:miter;stroke-opacity:1;fill-opacity:1"
       d="m 113.73663,389.388 -9.99882,29.37155 121.23575,23.74721 c 0,0 0,-10.62376 1.24986,-9.99883 1.24985,0.62493 16.24809,1.24985 16.24809,1.24985 l -13.12346,-22.49735 z"
       id="path4390"
       inkscape:connector-curvature="0" />
    <path
       style="fill:#000000;fill-opacity:0.47087378;stroke:none"
       d="m 227.47327,433.13286 3.12463,-21.87243 11.87361,23.12228 z"
       id="path4392"
       inkscape:connector-curvature="0"
       sodipodi:nodetypes="cccc" />
    <path
       style="fill:#f5f5f5;stroke:#000000;stroke-width:3;stroke-linecap:butt;stroke-linejoin:miter;stroke-miterlimit:4;stroke-opacity:1;stroke-dasharray:none;fill-opacity:1"
       d="m 312.2807,88.596491 0,-17.543859 41.22807,4.385964 1.75439,30.701754 -38.59649,-2.63158"
       id="path3037"
       inkscape:connector-curvature="0" />
  </g>
</svg>
