<svg width="100%" height="100%" viewBox="4.38442 2.65095 144.474 143.536" version="1.1" xmlns="http://www.w3.org/2000/svg" xmlns:xlink="http://www.w3.org/1999/xlink" xmlns:t="http://www.tagul.com/schema">
  <t:styleOptions>
    <t:backgroundColor>FFFFFF</t:backgroundColor>
    <t:backgroundColorAlpha>1</t:backgroundColorAlpha>
    <t:animationSpeed>0.200000002980232</t:animationSpeed>
    <t:textColor>FFFFFF</t:textColor>
    <t:textAlpha>1</t:textAlpha>
    <t:boxColor>000000</t:boxColor>
    <t:boxAlpha>0.699999988079071</t:boxAlpha>
    <t:zoom>1</t:zoom>
    <t:rotate>1</t:rotate>
    <t:openLinksInNewWindow>0</t:openLinksInNewWindow>
  </t:styleOptions>
  <style type="text/css"><![CDATA[
	
	rect { opacity: 0; }
]]></style>
  <defs>
    <symbol overflow="visible" id="f0g114">
      <path d="M 267 -495 Q 313 -495 337 -465 Q 362 -435 362 -389 Q 362 -375 356 -358 Q 351 -342 342 -328 Q 334 -315 323 -306 Q 312 -297 301 -297 Q 285 -297 270 -303 Q 255 -309 244 -319 Q 233 -329 226 -343 Q 219 -357 219 -373 Q 219 -418 270 -418 Q 275 -418 282 -415 Q 289 -412 292 -412 L 292 -414 Q 292 -442 258 -442 Q 175 -442 175 -254 L 175 -219 Q 175 -168 176 -135 Q 177 -103 182 -84 Q 187 -65 198 -57 Q 210 -50 230 -50 Q 240 -50 241 -51 L 241 -4 L 11 -4 L 11 -55 L 44 -62 Q 61 -66 69 -75 Q 78 -85 78 -97 L 78 -374 Q 78 -399 61 -411 Q 45 -423 25 -423 L 26 -428 Q 26 -448 20 -460 Q 46 -468 85 -479 Q 124 -490 178 -504 Q 175 -481 174 -457 Q 173 -434 173 -408 Q 188 -448 216 -471 Q 245 -495 267 -495 "/>
    </symbol>
    <symbol overflow="visible" id="f0g101">
      <path d="M 341 -325 Q 341 -279 332 -263 L 123 -263 Q 120 -216 120 -199 Q 120 -42 191 -42 Q 245 -42 286 -132 L 323 -132 Q 293 7 174 7 Q 15 7 15 -268 Q 15 -316 27 -356 Q 39 -397 61 -427 Q 84 -457 116 -473 Q 148 -490 188 -490 Q 261 -490 301 -445 Q 341 -400 341 -325 M 251 -345 Q 251 -452 191 -452 Q 179 -452 167 -441 Q 156 -431 146 -415 Q 137 -399 131 -381 Q 126 -363 126 -347 L 126 -322 L 250 -322 Q 251 -328 251 -334 Q 251 -340 251 -345 "/>
    </symbol>
    <symbol overflow="visible" id="f0g102">
      <path d="M 330 -669 Q 330 -631 313 -607 Q 296 -584 268 -584 Q 250 -584 237 -600 Q 224 -617 224 -640 Q 224 -663 238 -680 Q 253 -697 276 -697 Q 284 -697 292 -694 Q 278 -711 269 -713 Q 261 -716 249 -716 Q 223 -716 209 -709 Q 196 -702 189 -682 Q 183 -662 182 -626 Q 181 -591 181 -534 L 181 -487 Q 185 -472 210 -472 Q 235 -472 253 -475 L 253 -413 L 176 -413 L 176 -222 Q 176 -163 177 -131 Q 179 -99 182 -83 Q 185 -67 189 -63 Q 194 -60 201 -58 L 207 -56 Q 217 -52 227 -48 Q 238 -44 238 -35 L 238 -4 L 18 -4 L 18 -45 Q 71 -59 71 -130 Q 71 -128 69 -193 Q 68 -259 66 -404 Q 48 -409 29 -409 L 13 -409 L 13 -475 L 71 -475 Q 79 -753 229 -753 Q 249 -753 267 -746 Q 286 -740 300 -729 Q 314 -718 322 -702 Q 330 -687 330 -669 "/>
    </symbol>
    <symbol overflow="visible" id="f0g110">
      <path d="M 480 -82 Q 480 -48 456 -25 Q 432 -3 398 -3 Q 301 -3 301 -93 L 301 -284 Q 301 -311 295 -335 Q 289 -360 279 -379 Q 269 -399 254 -410 Q 240 -422 224 -422 Q 210 -422 198 -409 Q 186 -397 186 -382 Q 180 -127 180 -121 Q 180 -50 232 -50 Q 239 -50 243 -51 L 243 -4 L 13 -4 L 13 -55 Q 22 -60 32 -60 Q 43 -60 53 -62 Q 63 -65 69 -73 Q 76 -82 76 -105 Q 76 -111 75 -121 Q 74 -132 73 -143 Q 73 -155 72 -165 Q 71 -176 71 -182 Q 71 -197 73 -229 Q 75 -262 78 -295 Q 81 -328 83 -354 Q 85 -381 85 -386 Q 85 -399 68 -411 Q 51 -423 27 -423 L 28 -428 Q 28 -448 22 -460 Q 51 -468 94 -479 Q 137 -490 195 -504 Q 192 -469 192 -465 Q 192 -456 194 -446 Q 229 -490 265 -490 Q 286 -490 310 -472 Q 334 -455 354 -429 Q 375 -404 389 -375 Q 403 -346 403 -324 L 403 -120 Q 403 -71 420 -56 Q 439 -66 439 -88 Q 439 -92 438 -101 Q 437 -110 437 -115 L 437 -123 L 480 -123 L 480 -82 "/>
    </symbol>
    <symbol overflow="visible" id="f0g116">
      <path d="M 237 -63 Q 237 -49 230 -37 Q 223 -26 212 -17 Q 201 -8 188 -3 Q 175 2 163 2 Q 130 2 109 -3 Q 89 -8 78 -24 Q 67 -41 63 -71 Q 60 -102 60 -152 L 60 -414 Q 38 -422 23 -422 Q 19 -422 10 -420 Q 2 -419 -3 -419 Q -3 -421 -2 -428 Q -1 -436 0 -444 Q 1 -452 2 -458 Q 4 -465 6 -465 Q 69 -465 103 -511 Q 137 -557 137 -629 L 171 -629 L 171 -479 Q 190 -477 228 -470 L 228 -418 L 160 -418 L 160 -82 Q 160 -58 177 -58 Q 195 -58 195 -76 L 195 -123 L 237 -123 L 237 -63 "/>
    </symbol>
    <symbol overflow="visible" id="f0g105">
      <path d="M 199 -601 Q 199 -587 192 -574 Q 186 -561 175 -551 Q 165 -541 151 -535 Q 138 -529 125 -529 Q 97 -529 76 -553 Q 55 -578 55 -611 Q 55 -638 77 -655 Q 100 -673 127 -673 Q 158 -673 178 -652 Q 199 -632 199 -601 M 247 -4 L 17 -4 L 17 -55 Q 18 -54 32 -54 Q 87 -54 87 -134 Q 87 -173 85 -204 Q 84 -236 84 -271 Q 84 -294 85 -318 Q 86 -343 89 -374 Q 89 -399 71 -411 Q 54 -423 31 -423 L 32 -428 Q 32 -448 26 -459 Q 81 -474 194 -504 Q 189 -412 186 -319 Q 183 -226 183 -129 Q 183 -90 195 -70 Q 207 -50 236 -50 Q 246 -50 247 -51 L 247 -4 "/>
    </symbol>
    <symbol overflow="visible" id="f0g97">
      <path d="M 381 -19 Q 381 4 370 8 Q 359 12 340 12 Q 315 12 292 -5 Q 269 -22 260 -46 Q 209 7 142 7 Q 81 7 44 -27 Q 7 -61 7 -121 Q 7 -158 19 -188 Q 31 -219 53 -241 Q 76 -263 107 -274 Q 138 -286 177 -286 Q 185 -286 194 -285 Q 203 -285 213 -284 Q 217 -303 217 -329 Q 217 -451 133 -451 Q 98 -451 80 -411 Q 97 -418 112 -418 Q 152 -418 152 -355 Q 152 -346 145 -336 Q 139 -327 129 -319 Q 119 -312 108 -307 Q 98 -302 89 -302 Q 27 -302 27 -386 Q 27 -439 73 -467 Q 120 -495 203 -495 Q 264 -495 291 -442 Q 319 -390 319 -266 Q 319 -258 318 -241 Q 318 -224 318 -205 Q 318 -186 317 -169 Q 317 -152 317 -143 Q 317 -37 351 -37 Q 362 -37 377 -46 Q 381 -34 381 -19 M 215 -106 Q 214 -117 213 -125 Q 213 -134 213 -140 Q 212 -147 212 -152 L 212 -151 Q 212 -166 212 -185 Q 213 -205 214 -229 Q 196 -234 174 -234 Q 144 -234 125 -207 Q 107 -181 107 -142 Q 107 -100 128 -71 Q 150 -42 186 -42 Q 206 -42 209 -66 Q 211 -85 212 -94 Q 214 -104 215 -106 "/>
    </symbol>
    <symbol overflow="visible" id="f0g108">
      <path d="M 239 -4 L 9 -4 L 9 -55 Q 73 -58 73 -102 Q 73 -107 72 -116 Q 71 -126 71 -131 L 71 -568 Q 71 -573 72 -583 Q 74 -594 76 -605 Q 78 -617 79 -627 Q 81 -638 81 -643 Q 81 -666 66 -679 Q 51 -692 30 -692 L 24 -692 L 24 -698 Q 24 -717 18 -729 Q 47 -737 90 -748 Q 133 -759 191 -773 Q 191 -762 188 -716 Q 186 -670 181 -588 Q 179 -565 178 -551 Q 177 -538 177 -533 L 177 -531 L 177 -82 Q 177 -50 221 -50 Q 225 -50 229 -50 Q 234 -50 239 -51 L 239 -4 "/>
    </symbol>
    <symbol overflow="visible" id="f0g32">
      <path d=""/>
    </symbol>
    <symbol overflow="visible" id="f0g103">
      <path d="M 380 -566 Q 380 -544 369 -538 Q 359 -532 344 -527 Q 329 -523 312 -513 Q 296 -503 284 -473 Q 296 -465 306 -450 Q 317 -436 324 -417 Q 332 -398 336 -377 Q 341 -356 341 -336 Q 341 -301 329 -271 Q 318 -242 291 -215 Q 264 -188 220 -162 Q 176 -136 112 -109 Q 103 -101 103 -91 Q 103 -69 133 -69 Q 130 -69 140 -74 Q 150 -80 167 -88 Q 184 -96 205 -105 Q 226 -114 246 -122 Q 266 -130 281 -135 Q 296 -141 301 -141 Q 312 -141 321 -132 Q 330 -124 336 -109 Q 342 -94 345 -74 Q 349 -55 349 -33 Q 349 1 325 39 Q 302 78 266 111 Q 231 144 190 165 Q 150 187 116 187 Q 17 187 17 78 Q 17 58 20 42 Q 23 26 31 11 Q 40 -4 55 -20 Q 70 -36 93 -56 Q 73 -65 62 -70 Q 51 -75 46 -80 Q 41 -85 40 -90 Q 40 -96 40 -107 Q 40 -120 45 -129 Q 51 -138 60 -144 Q 69 -150 79 -154 Q 90 -158 101 -163 Q 25 -226 25 -300 Q 25 -408 66 -453 Q 107 -498 196 -498 Q 229 -498 253 -488 Q 254 -508 262 -529 Q 271 -550 283 -567 Q 296 -584 312 -595 Q 328 -606 346 -606 Q 380 -606 380 -566 M 236 -345 Q 236 -469 180 -469 Q 165 -469 155 -463 Q 145 -457 139 -437 Q 133 -418 130 -380 Q 128 -342 128 -278 Q 128 -184 161 -184 Q 181 -184 195 -192 Q 209 -200 218 -219 Q 227 -238 231 -269 Q 236 -300 236 -345 M 260 -13 Q 260 -34 251 -54 Q 242 -74 228 -74 Q 207 -74 187 -60 Q 168 -46 152 -24 Q 137 -3 128 24 Q 119 51 119 76 Q 119 143 158 143 Q 178 143 196 129 Q 215 115 229 92 Q 243 70 251 42 Q 260 14 260 -13 "/>
    </symbol>
    <symbol overflow="visible" id="f0g121">
      <path d="M 417 -447 Q 414 -438 401 -406 Q 389 -375 372 -331 Q 355 -288 335 -238 Q 316 -188 298 -141 Q 280 -95 265 -57 Q 251 -20 244 -3 Q 224 48 209 78 Q 195 108 188 118 Q 144 181 79 181 Q 48 181 25 163 Q 2 145 2 116 Q 2 94 15 75 Q 29 56 62 56 Q 69 56 78 58 Q 88 61 96 66 Q 104 72 109 80 Q 115 88 115 98 Q 115 118 107 127 Q 99 137 82 145 Q 88 148 96 148 Q 108 148 122 129 Q 136 111 148 86 Q 160 61 168 35 Q 176 10 176 -4 Q 176 -10 170 -37 Q 149 -133 125 -211 Q 101 -289 87 -349 Q 65 -419 8 -422 Q 9 -429 10 -439 Q 11 -450 12 -464 Q 35 -470 68 -478 Q 101 -487 146 -498 L 236 -122 Q 312 -383 312 -386 Q 312 -402 295 -417 Q 279 -433 263 -433 Q 260 -433 254 -431 L 254 -469 Q 280 -476 319 -487 Q 358 -498 411 -512 L 417 -447 "/>
    </symbol>
    <symbol overflow="visible" id="f0g104">
      <path d="M 480 -82 Q 480 -48 456 -25 Q 433 -3 398 -3 Q 302 -3 302 -93 L 302 -284 Q 302 -305 294 -327 Q 286 -349 273 -367 Q 260 -385 243 -396 Q 227 -408 210 -408 Q 191 -408 181 -386 L 181 -82 Q 181 -50 225 -50 Q 229 -50 233 -50 Q 238 -50 243 -51 L 243 -4 L 13 -4 L 13 -55 L 17 -55 Q 79 -55 79 -128 L 79 -247 Q 79 -292 82 -387 Q 85 -483 85 -637 Q 85 -657 69 -669 Q 53 -682 33 -682 L 28 -682 L 28 -694 Q 28 -701 23 -719 Q 52 -727 94 -738 Q 137 -749 195 -763 Q 192 -698 192 -675 Q 192 -649 192 -593 Q 193 -537 194 -446 Q 207 -461 215 -469 Q 223 -478 229 -482 Q 236 -487 243 -488 Q 250 -490 261 -490 Q 284 -490 309 -472 Q 334 -455 355 -429 Q 376 -404 389 -375 Q 403 -346 403 -324 L 403 -120 Q 403 -71 420 -56 Q 439 -66 439 -88 Q 439 -92 438 -101 Q 437 -110 437 -115 Q 437 -122 438 -123 L 480 -123 L 480 -82 "/>
    </symbol>
    <symbol overflow="visible" id="f0g111">
      <path d="M 177 -503 Q 358 -503 358 -246 Q 358 -186 345 -138 Q 333 -91 310 -57 Q 287 -23 253 -5 Q 220 13 177 13 Q 16 13 16 -276 Q 16 -319 28 -359 Q 41 -400 63 -432 Q 85 -464 114 -483 Q 144 -503 177 -503 M 199 -450 Q 117 -450 117 -251 Q 117 -31 180 -31 Q 267 -31 267 -225 Q 267 -273 261 -314 Q 256 -355 247 -385 Q 238 -415 225 -432 Q 213 -450 199 -450 "/>
    </symbol>
    <symbol overflow="visible" id="f0g109">
      <path d="M 694 -82 Q 694 -48 670 -25 Q 647 -3 613 -3 Q 516 -3 516 -93 L 516 -284 Q 516 -311 510 -335 Q 504 -360 494 -379 Q 484 -399 469 -410 Q 455 -422 439 -422 Q 430 -422 423 -414 Q 416 -407 410 -396 Q 405 -385 402 -371 Q 400 -358 400 -345 Q 400 -339 400 -327 Q 401 -316 401 -305 Q 402 -294 402 -285 Q 403 -276 403 -273 Q 403 -265 402 -245 Q 402 -226 402 -201 Q 402 -176 403 -149 Q 405 -122 409 -99 Q 414 -77 422 -62 Q 431 -48 445 -48 Q 451 -48 457 -51 L 457 -3 L 251 -3 Q 257 -19 257 -55 L 259 -55 Q 282 -55 293 -75 Q 305 -95 305 -139 L 305 -173 Q 305 -184 304 -193 Q 303 -202 304 -207 Q 304 -266 299 -307 Q 295 -348 285 -373 Q 276 -399 261 -410 Q 247 -422 227 -422 Q 212 -422 200 -409 Q 188 -397 188 -382 Q 185 -256 184 -193 Q 183 -131 183 -129 Q 183 -54 212 -54 Q 218 -54 221 -55 L 221 -45 Q 221 -24 226 1 Q 87 -2 84 -3 Q 38 -3 15 1 L 15 -55 Q 24 -60 34 -59 Q 45 -59 55 -61 Q 65 -64 71 -73 Q 78 -82 78 -105 Q 78 -111 77 -121 Q 76 -132 75 -143 Q 75 -155 74 -165 Q 73 -176 73 -182 Q 73 -197 75 -229 Q 77 -261 80 -294 Q 83 -328 85 -355 Q 87 -382 87 -388 Q 87 -403 73 -412 Q 59 -422 30 -423 L 30 -429 Q 30 -445 25 -460 Q 54 -468 96 -479 Q 139 -490 197 -504 Q 194 -469 194 -465 Q 194 -456 196 -446 Q 231 -490 268 -490 Q 281 -490 297 -482 Q 313 -475 327 -464 Q 341 -453 352 -439 Q 364 -426 369 -413 Q 392 -439 406 -454 Q 421 -469 432 -477 Q 444 -485 454 -487 Q 465 -490 480 -490 Q 501 -490 525 -472 Q 550 -454 570 -428 Q 590 -403 603 -374 Q 617 -345 617 -324 L 617 -120 Q 617 -71 634 -56 Q 653 -66 653 -88 Q 653 -92 652 -101 Q 651 -110 651 -115 Q 651 -120 652 -123 L 694 -123 L 694 -82 "/>
    </symbol>
    <symbol overflow="visible" id="f0g112">
      <path d="M 394 -218 Q 394 -179 382 -139 Q 371 -99 351 -67 Q 331 -36 304 -16 Q 277 4 247 4 Q 220 4 203 -11 Q 186 -27 175 -49 Q 172 -47 172 -28 L 172 59 Q 172 88 181 105 Q 191 122 225 122 Q 231 122 239 120 Q 235 130 234 142 Q 234 154 234 167 Q 225 167 204 168 Q 183 170 158 172 Q 134 174 111 175 Q 88 177 76 177 Q 25 177 14 167 L 14 125 Q 41 123 56 103 Q 71 84 71 46 L 71 -339 Q 60 -411 35 -411 Q 26 -411 -2 -402 L -2 -444 Q 26 -456 55 -470 Q 85 -485 116 -502 L 138 -502 L 147 -444 Q 150 -445 156 -453 Q 162 -461 173 -470 Q 184 -479 200 -486 Q 217 -493 240 -493 Q 394 -493 394 -218 M 225 -445 Q 166 -445 166 -326 L 166 -205 Q 166 -74 225 -74 Q 293 -74 293 -259 Q 293 -445 225 -445 "/>
    </symbol>
    <symbol overflow="visible" id="f0g115">
      <path d="M 169 -497 Q 247 -497 287 -463 Q 328 -430 328 -379 Q 328 -349 310 -327 Q 292 -305 263 -305 Q 238 -305 220 -323 Q 203 -342 203 -367 Q 203 -386 218 -400 Q 234 -415 253 -415 Q 260 -415 266 -410 Q 273 -406 275 -406 Q 276 -409 276 -413 Q 276 -421 268 -427 Q 260 -434 247 -439 Q 234 -444 217 -446 Q 201 -449 184 -449 Q 173 -449 161 -444 Q 150 -439 139 -430 Q 129 -422 122 -411 Q 116 -401 116 -391 Q 116 -372 121 -356 Q 126 -340 138 -325 Q 151 -310 172 -294 Q 194 -278 227 -259 Q 251 -246 270 -233 Q 290 -221 304 -206 Q 318 -191 325 -172 Q 333 -154 333 -128 Q 333 -105 325 -79 Q 317 -54 301 -32 Q 285 -11 261 3 Q 237 18 205 18 Q 117 18 66 -12 Q 15 -42 15 -99 Q 15 -129 33 -151 Q 51 -174 80 -174 Q 105 -174 122 -155 Q 140 -137 140 -111 Q 140 -93 124 -78 Q 109 -64 90 -64 Q 83 -64 77 -68 Q 72 -72 70 -73 Q 78 -29 164 -29 Q 179 -29 194 -34 Q 209 -40 221 -49 Q 233 -58 240 -71 Q 247 -84 247 -99 Q 247 -135 194 -171 Q 104 -234 97 -241 Q 44 -291 44 -357 Q 44 -385 55 -410 Q 67 -436 85 -455 Q 103 -475 125 -486 Q 147 -497 169 -497 "/>
    </symbol>
    <symbol overflow="visible" id="f0g98">
      <path d="M 393 -268 Q 393 7 239 7 Q 174 7 121 -46 Q 109 -27 100 -15 Q 91 -4 82 2 Q 74 8 64 10 Q 54 12 41 12 Q 25 12 16 9 Q 8 6 4 0 Q 0 -6 -1 -16 Q -2 -26 -2 -41 Q 73 -51 73 -158 Q 73 -167 72 -187 Q 71 -207 70 -229 Q 69 -252 68 -273 Q 67 -294 67 -304 L 70 -643 Q 70 -665 55 -678 Q 40 -692 19 -692 L 13 -692 L 13 -698 L 13 -704 Q 13 -717 8 -729 Q 37 -737 79 -748 Q 122 -759 180 -773 Q 177 -711 177 -685 Q 177 -604 177 -544 Q 178 -484 179 -446 Q 192 -462 200 -470 Q 208 -479 214 -483 Q 221 -488 228 -489 Q 235 -490 246 -490 Q 276 -490 302 -470 Q 329 -451 349 -419 Q 370 -388 381 -348 Q 393 -308 393 -268 M 292 -232 Q 292 -263 285 -294 Q 278 -326 266 -351 Q 255 -376 239 -392 Q 223 -408 205 -408 Q 188 -408 167 -387 L 167 -107 Q 167 -97 169 -85 Q 171 -74 175 -64 Q 179 -55 184 -48 Q 189 -42 195 -42 Q 292 -42 292 -232 "/>
    </symbol>
    <symbol overflow="visible" id="f0g100">
      <path d="M 348 -107 Q 348 -96 353 -85 Q 359 -74 368 -65 Q 377 -57 388 -51 Q 399 -46 410 -46 Q 414 -38 414 -20 Q 414 3 402 7 Q 391 12 372 12 Q 347 12 324 -5 Q 302 -22 292 -46 Q 241 7 175 7 Q 21 7 21 -268 Q 21 -308 32 -348 Q 44 -388 64 -419 Q 84 -451 110 -470 Q 137 -490 168 -490 Q 185 -490 192 -486 Q 199 -483 214 -466 L 239 -437 Q 243 -449 243 -625 Q 243 -692 192 -692 L 185 -692 L 185 -703 Q 185 -716 180 -729 Q 234 -743 276 -754 Q 318 -765 347 -773 L 348 -107 M 249 -283 Q 249 -413 189 -413 Q 122 -413 122 -227 Q 122 -42 189 -42 Q 249 -42 249 -162 Q 249 -173 248 -194 Q 247 -216 247 -227 Q 247 -237 248 -255 Q 249 -274 249 -283 "/>
    </symbol>
    <symbol overflow="visible" id="f0g117">
      <path d="M 416 6 Q 405 12 398 12 Q 373 12 350 -5 Q 327 -22 318 -46 Q 267 7 200 7 Q 173 7 148 -2 Q 123 -11 103 -27 Q 84 -43 72 -66 Q 61 -89 61 -117 L 61 -333 Q 61 -360 43 -377 Q 25 -394 -1 -394 Q 0 -401 1 -411 Q 2 -422 3 -436 L 151 -480 Q 148 -291 148 -206 Q 148 -156 152 -124 Q 157 -92 165 -74 Q 174 -56 186 -49 Q 199 -42 215 -42 Q 276 -42 276 -162 L 276 -302 Q 276 -357 260 -380 Q 245 -404 216 -404 L 216 -441 Q 250 -451 289 -462 Q 328 -473 373 -485 Q 374 -428 374 -383 Q 374 -338 374 -303 Q 374 -255 373 -226 Q 373 -198 372 -180 Q 372 -163 371 -152 Q 371 -141 371 -128 Q 371 -64 421 -41 L 416 6 "/>
    </symbol>
    <symbol overflow="visible" id="f0g99">
      <path d="M 345 -379 Q 345 -350 327 -328 Q 310 -307 282 -307 Q 258 -307 241 -325 Q 224 -343 224 -367 Q 224 -385 239 -399 Q 254 -413 272 -413 Q 278 -413 284 -408 Q 290 -404 295 -404 L 295 -406 Q 295 -426 278 -436 Q 262 -447 226 -447 Q 175 -447 151 -406 Q 127 -365 127 -267 Q 127 -202 131 -157 Q 135 -113 144 -85 Q 153 -57 166 -44 Q 180 -32 200 -32 Q 215 -32 223 -33 Q 232 -35 241 -42 Q 251 -49 263 -63 Q 276 -78 298 -104 Q 320 -93 335 -78 Q 308 -46 290 -27 Q 273 -9 259 1 Q 245 11 232 13 Q 220 16 202 16 Q 117 16 71 -59 Q 26 -134 26 -268 Q 26 -311 39 -352 Q 52 -393 74 -424 Q 96 -456 125 -475 Q 155 -495 188 -495 Q 219 -495 247 -486 Q 276 -478 298 -462 Q 320 -447 332 -425 Q 345 -404 345 -379 "/>
    </symbol>
    <symbol overflow="visible" id="f0g122">
      <path d="M 380 -162 Q 352 -93 329 7 L 11 7 Q 9 -12 -1 -38 L 234 -392 Q 234 -410 219 -410 Q 120 -410 93 -301 Q 81 -305 54 -305 Q 29 -305 17 -301 L 62 -473 L 231 -473 Q 259 -473 292 -476 Q 325 -479 363 -484 L 363 -407 Q 346 -393 328 -370 Q 310 -348 284 -309 Q 258 -271 221 -213 Q 184 -156 130 -73 Q 151 -65 191 -65 Q 245 -65 269 -88 Q 294 -112 303 -168 Q 342 -168 380 -162 "/>
    </symbol>
    <symbol overflow="visible" id="f0g118">
      <path d="M 416 -438 L 250 13 Q 235 10 211 10 Q 201 10 190 10 Q 179 11 165 12 Q 160 -8 150 -41 Q 141 -75 129 -114 Q 118 -154 105 -196 Q 93 -238 82 -275 Q 71 -312 62 -340 Q 53 -369 49 -382 Q 47 -387 40 -392 Q 33 -398 23 -402 Q 14 -406 4 -408 Q -5 -411 -12 -411 L -16 -411 Q -14 -419 -13 -430 Q -12 -441 -11 -455 Q 13 -462 48 -471 Q 84 -480 132 -491 L 229 -93 Q 310 -370 310 -374 Q 310 -382 304 -390 Q 299 -399 291 -406 Q 283 -414 274 -418 Q 265 -423 257 -423 Q 253 -423 247 -421 L 247 -460 Q 276 -468 317 -479 Q 359 -491 416 -506 L 416 -438 "/>
    </symbol>
    <symbol overflow="visible" id="f0g45">
      <path d="M 42 -197 Q 42 -202 40 -212 Q 39 -223 37 -235 Q 36 -247 34 -258 Q 33 -270 33 -278 L 33 -284 L 33 -290 Q 52 -290 91 -291 Q 130 -292 173 -293 Q 216 -294 255 -295 Q 294 -296 313 -296 Q 314 -263 319 -197 L 42 -197 "/>
    </symbol>
  </defs>
  <a xlink:href="http://www.google.com/search?q=referential+integrity" target="_top">
    <t:tag>referential integrity</t:tag>
    <g transform="matrix(0.018208,0,0,0.018208,13.9752,81.0352)" fill="#000000">
      <rect x="-163.68" y="-963.68" width="7085.36" height="1319.36"/>
      <use xlink:href="#f0g114" x="0" y="0"/>
      <use xlink:href="#f0g101" x="345" y="0"/>
      <use xlink:href="#f0g102" x="702" y="0"/>
      <use xlink:href="#f0g101" x="977" y="0"/>
      <use xlink:href="#f0g114" x="1334" y="0"/>
      <use xlink:href="#f0g101" x="1679" y="0"/>
      <use xlink:href="#f0g110" x="2036" y="0"/>
      <use xlink:href="#f0g116" x="2491" y="0"/>
      <use xlink:href="#f0g105" x="2726" y="0"/>
      <use xlink:href="#f0g97" x="2982" y="0"/>
      <use xlink:href="#f0g108" x="3347" y="0"/>
      <use xlink:href="#f0g32" x="3588" y="0"/>
      <use xlink:href="#f0g105" x="3833" y="0"/>
      <use xlink:href="#f0g110" x="4089" y="0"/>
      <use xlink:href="#f0g116" x="4544" y="0"/>
      <use xlink:href="#f0g101" x="4779" y="0"/>
      <use xlink:href="#f0g103" x="5136" y="0"/>
      <use xlink:href="#f0g114" x="5495" y="0"/>
      <use xlink:href="#f0g105" x="5840" y="0"/>
      <use xlink:href="#f0g116" x="6075" y="0"/>
      <use xlink:href="#f0g121" x="6310" y="0"/>
    </g>
  </a>
  <a xlink:href="http://www.google.com/search?q=homomorphism" target="_top">
    <t:tag>homomorphism</t:tag>
    <g transform="matrix(0.018208,0,0,0.018208,26.2474,59.2439)" fill="#000000">
      <rect x="-158.4" y="-926.4" width="5726.8" height="1276.8"/>
      <use xlink:href="#f0g104" x="0" y="0"/>
      <use xlink:href="#f0g111" x="472" y="0"/>
      <use xlink:href="#f0g109" x="833" y="0"/>
      <use xlink:href="#f0g111" x="1512" y="0"/>
      <use xlink:href="#f0g109" x="1873" y="0"/>
      <use xlink:href="#f0g111" x="2552" y="0"/>
      <use xlink:href="#f0g114" x="2913" y="0"/>
      <use xlink:href="#f0g112" x="3258" y="0"/>
      <use xlink:href="#f0g104" x="3657" y="0"/>
      <use xlink:href="#f0g105" x="4129" y="0"/>
      <use xlink:href="#f0g115" x="4385" y="0"/>
      <use xlink:href="#f0g109" x="4716" y="0"/>
    </g>
  </a>
  <a xlink:href="http://www.google.com/search?q=maybe+type" target="_top">
    <t:tag>maybe type</t:tag>
    <g transform="matrix(0.018208,0,0,0.018208,40.3677,107.035)" fill="#000000">
      <rect x="-163.68" y="-963.68" width="4186.36" height="1319.36"/>
      <use xlink:href="#f0g109" x="0" y="0"/>
      <use xlink:href="#f0g97" x="679" y="0"/>
      <use xlink:href="#f0g121" x="1044" y="0"/>
      <use xlink:href="#f0g98" x="1454" y="0"/>
      <use xlink:href="#f0g101" x="1861" y="0"/>
      <use xlink:href="#f0g32" x="2218" y="0"/>
      <use xlink:href="#f0g116" x="2463" y="0"/>
      <use xlink:href="#f0g121" x="2698" y="0"/>
      <use xlink:href="#f0g112" x="3108" y="0"/>
      <use xlink:href="#f0g101" x="3507" y="0"/>
    </g>
  </a>
  <a xlink:href="http://www.google.com/search?q=monad" target="_top">
    <t:tag>monad</t:tag>
    <g transform="matrix(0.018208,0,0,0.018208,54.7793,37.9919)" fill="#000000">
      <rect x="-137.28" y="-937.28" width="2550.56" height="1106.56"/>
      <use xlink:href="#f0g109" x="0" y="0"/>
      <use xlink:href="#f0g111" x="679" y="0"/>
      <use xlink:href="#f0g110" x="1040" y="0"/>
      <use xlink:href="#f0g97" x="1516" y="0"/>
      <use xlink:href="#f0g100" x="1860" y="0"/>
    </g>
  </a>
  <a xlink:href="http://www.google.com/search?q=immutability" target="_top">
    <t:tag>immutability</t:tag>
    <g transform="matrix(0.018208,0,0,0.018208,35.0236,127.035)" fill="#000000">
      <rect x="-163.68" y="-963.68" width="4773.36" height="1319.36"/>
      <use xlink:href="#f0g105" x="0" y="0"/>
      <use xlink:href="#f0g109" x="256" y="0"/>
      <use xlink:href="#f0g109" x="935" y="0"/>
      <use xlink:href="#f0g117" x="1614" y="0"/>
      <use xlink:href="#f0g116" x="2024" y="0"/>
      <use xlink:href="#f0g97" x="2259" y="0"/>
      <use xlink:href="#f0g98" x="2624" y="0"/>
      <use xlink:href="#f0g105" x="3031" y="0"/>
      <use xlink:href="#f0g108" x="3287" y="0"/>
      <use xlink:href="#f0g105" x="3528" y="0"/>
      <use xlink:href="#f0g116" x="3763" y="0"/>
      <use xlink:href="#f0g121" x="3998" y="0"/>
    </g>
  </a>
  <a xlink:href="http://www.google.com/search?q=functor" target="_top">
    <t:tag>functor</t:tag>
    <g transform="matrix(0.018208,0,0,0.018208,52.5215,143.201)" fill="#000000">
      <rect x="-132" y="-900" width="2788" height="1064"/>
      <use xlink:href="#f0g102" x="0" y="0"/>
      <use xlink:href="#f0g117" x="320" y="0"/>
      <use xlink:href="#f0g110" x="739" y="0"/>
      <use xlink:href="#f0g99" x="1215" y="0"/>
      <use xlink:href="#f0g116" x="1566" y="0"/>
      <use xlink:href="#f0g111" x="1801" y="0"/>
      <use xlink:href="#f0g114" x="2162" y="0"/>
    </g>
  </a>
  <a xlink:href="http://www.google.com/search?q=purity" target="_top">
    <t:tag>purity</t:tag>
    <g transform="matrix(0.018208,0,0,0.018208,56.8459,18.1612)" fill="#000000">
      <rect x="-179.84" y="-851.84" width="2408.68" height="1191.68"/>
      <use xlink:href="#f0g112" x="0" y="0"/>
      <use xlink:href="#f0g117" x="399" y="0"/>
      <use xlink:href="#f0g114" x="818" y="0"/>
      <use xlink:href="#f0g105" x="1163" y="0"/>
      <use xlink:href="#f0g116" x="1398" y="0"/>
      <use xlink:href="#f0g121" x="1633" y="0"/>
    </g>
  </a>
  <a xlink:href="http://www.google.com/search?q=currying" target="_top">
    <t:tag>currying</t:tag>
    <g transform="matrix(0.0167411,0,0,0.0167411,10.0391,93.7857)" fill="#000000">
      <rect x="-147.84" y="-851.84" width="3277.68" height="1191.68"/>
      <use xlink:href="#f0g99" x="0" y="0"/>
      <use xlink:href="#f0g117" x="351" y="0"/>
      <use xlink:href="#f0g114" x="770" y="0"/>
      <use xlink:href="#f0g114" x="1115" y="0"/>
      <use xlink:href="#f0g121" x="1460" y="0"/>
      <use xlink:href="#f0g105" x="1870" y="0"/>
      <use xlink:href="#f0g110" x="2126" y="0"/>
      <use xlink:href="#f0g103" x="2602" y="0"/>
    </g>
  </a>
  <a xlink:href="http://www.google.com/search?q=lazy+evaluation" target="_top">
    <t:tag>lazy evaluation</t:tag>
    <g transform="matrix(0.0113547,0,0,0.0113547,89,94.4518)" fill="#000000">
      <rect x="-163.68" y="-963.68" width="5435.36" height="1319.36"/>
      <use xlink:href="#f0g108" x="0" y="0"/>
      <use xlink:href="#f0g97" x="241" y="0"/>
      <use xlink:href="#f0g122" x="606" y="0"/>
      <use xlink:href="#f0g121" x="995" y="0"/>
      <use xlink:href="#f0g32" x="1405" y="0"/>
      <use xlink:href="#f0g101" x="1650" y="0"/>
      <use xlink:href="#f0g118" x="2007" y="0"/>
      <use xlink:href="#f0g97" x="2405" y="0"/>
      <use xlink:href="#f0g108" x="2770" y="0"/>
      <use xlink:href="#f0g117" x="3011" y="0"/>
      <use xlink:href="#f0g97" x="3430" y="0"/>
      <use xlink:href="#f0g116" x="3776" y="0"/>
      <use xlink:href="#f0g105" x="4011" y="0"/>
      <use xlink:href="#f0g111" x="4267" y="0"/>
      <use xlink:href="#f0g110" x="4628" y="0"/>
    </g>
  </a>
  <a xlink:href="http://www.google.com/search?q=lense" target="_top">
    <t:tag>lens</t:tag>
    <g transform="matrix(0.018208,0,0,0.018208,24.5177,41.9919)" fill="#000000">
      <rect x="-137.28" y="-937.28" width="1700.56" height="1106.56"/>
      <use xlink:href="#f0g108" x="0" y="0"/>
      <use xlink:href="#f0g101" x="241" y="0"/>
      <use xlink:href="#f0g110" x="598" y="0"/>
      <use xlink:href="#f0g115" x="1074" y="0"/>
    </g>
  </a>
  <a xlink:href="http://www.google.com/search?q=category+theory" target="_top">
    <t:tag>category theory</t:tag>
    <g transform="matrix(0.00833333,0,0,0.00833333,97.7208,66.4)" fill="#000000">
      <rect x="-158.4" y="-926.4" width="5543.8" height="1276.8"/>
      <use xlink:href="#f0g99" x="0" y="0"/>
      <use xlink:href="#f0g97" x="351" y="0"/>
      <use xlink:href="#f0g116" x="697" y="0"/>
      <use xlink:href="#f0g101" x="932" y="0"/>
      <use xlink:href="#f0g103" x="1289" y="0"/>
      <use xlink:href="#f0g111" x="1648" y="0"/>
      <use xlink:href="#f0g114" x="2009" y="0"/>
      <use xlink:href="#f0g121" x="2354" y="0"/>
      <use xlink:href="#f0g32" x="2764" y="0"/>
      <use xlink:href="#f0g116" x="3009" y="0"/>
      <use xlink:href="#f0g104" x="3244" y="0"/>
      <use xlink:href="#f0g101" x="3716" y="0"/>
      <use xlink:href="#f0g111" x="4073" y="0"/>
      <use xlink:href="#f0g114" x="4434" y="0"/>
      <use xlink:href="#f0g121" x="4779" y="0"/>
    </g>
  </a>
  <a xlink:href="http://www.google.com/search?q=monoid" target="_top">
    <t:tag>monoid</t:tag>
    <g transform="matrix(0.0145155,0,0,0.0145155,97,43.074)" fill="#000000">
      <rect x="-137.28" y="-937.28" width="2823.56" height="1106.56"/>
      <use xlink:href="#f0g109" x="0" y="0"/>
      <use xlink:href="#f0g111" x="679" y="0"/>
      <use xlink:href="#f0g110" x="1040" y="0"/>
      <use xlink:href="#f0g111" x="1516" y="0"/>
      <use xlink:href="#f0g105" x="1877" y="0"/>
      <use xlink:href="#f0g100" x="2133" y="0"/>
    </g>
  </a>
  <a xlink:href="http://www.google.com/search?q=first+class+function" target="_top">
    <t:tag>first-class function</t:tag>
    <g transform="matrix(0.00721154,0,0,0.00721154,20.4147,65.7692)" fill="#000000">
      <rect x="-137.28" y="-937.28" width="6815.56" height="1106.56"/>
      <use xlink:href="#f0g102" x="0" y="0"/>
      <use xlink:href="#f0g105" x="275" y="0"/>
      <use xlink:href="#f0g114" x="531" y="0"/>
      <use xlink:href="#f0g115" x="876" y="0"/>
      <use xlink:href="#f0g116" x="1207" y="0"/>
      <use xlink:href="#f0g45" x="1442" y="0"/>
      <use xlink:href="#f0g99" x="1779" y="0"/>
      <use xlink:href="#f0g108" x="2130" y="0"/>
      <use xlink:href="#f0g97" x="2371" y="0"/>
      <use xlink:href="#f0g115" x="2736" y="0"/>
      <use xlink:href="#f0g115" x="3067" y="0"/>
      <use xlink:href="#f0g32" x="3398" y="0"/>
      <use xlink:href="#f0g102" x="3643" y="0"/>
      <use xlink:href="#f0g117" x="3963" y="0"/>
      <use xlink:href="#f0g110" x="4382" y="0"/>
      <use xlink:href="#f0g99" x="4858" y="0"/>
      <use xlink:href="#f0g116" x="5209" y="0"/>
      <use xlink:href="#f0g105" x="5444" y="0"/>
      <use xlink:href="#f0g111" x="5700" y="0"/>
      <use xlink:href="#f0g110" x="6061" y="0"/>
    </g>
  </a>
  <a xlink:href="http://www.google.com/search?q=tail+call+optimisation" target="_top">
    <t:tag>tail-call optimisation</t:tag>
    <g transform="matrix(0.00604839,0,0,0.00604839,40.2097,47.8387)" fill="#000000">
      <rect x="-195.68" y="-963.68" width="7431.36" height="1319.36"/>
      <use xlink:href="#f0g116" x="0" y="0"/>
      <use xlink:href="#f0g97" x="235" y="0"/>
      <use xlink:href="#f0g105" x="600" y="0"/>
      <use xlink:href="#f0g108" x="856" y="0"/>
      <use xlink:href="#f0g45" x="1097" y="0"/>
      <use xlink:href="#f0g99" x="1434" y="0"/>
      <use xlink:href="#f0g97" x="1785" y="0"/>
      <use xlink:href="#f0g108" x="2150" y="0"/>
      <use xlink:href="#f0g108" x="2391" y="0"/>
      <use xlink:href="#f0g32" x="2632" y="0"/>
      <use xlink:href="#f0g111" x="2877" y="0"/>
      <use xlink:href="#f0g112" x="3238" y="0"/>
      <use xlink:href="#f0g116" x="3637" y="0"/>
      <use xlink:href="#f0g105" x="3872" y="0"/>
      <use xlink:href="#f0g109" x="4128" y="0"/>
      <use xlink:href="#f0g105" x="4807" y="0"/>
      <use xlink:href="#f0g115" x="5063" y="0"/>
      <use xlink:href="#f0g97" x="5394" y="0"/>
      <use xlink:href="#f0g116" x="5740" y="0"/>
      <use xlink:href="#f0g105" x="5975" y="0"/>
      <use xlink:href="#f0g111" x="6231" y="0"/>
      <use xlink:href="#f0g110" x="6592" y="0"/>
    </g>
  </a>
  <a xlink:href="http://www.google.com/search?q=type+class" target="_top">
    <t:tag>type class</t:tag>
    <g transform="matrix(0.00994575,0,0,0.00994575,111.318,103.024)" fill="#000000">
      <rect x="-195.68" y="-963.68" width="3645.36" height="1319.36"/>
      <use xlink:href="#f0g116" x="0" y="0"/>
      <use xlink:href="#f0g121" x="235" y="0"/>
      <use xlink:href="#f0g112" x="645" y="0"/>
      <use xlink:href="#f0g101" x="1044" y="0"/>
      <use xlink:href="#f0g32" x="1401" y="0"/>
      <use xlink:href="#f0g99" x="1646" y="0"/>
      <use xlink:href="#f0g108" x="1997" y="0"/>
      <use xlink:href="#f0g97" x="2238" y="0"/>
      <use xlink:href="#f0g115" x="2603" y="0"/>
      <use xlink:href="#f0g115" x="2934" y="0"/>
    </g>
  </a>
  <a xlink:href="http://www.google.com/search?q=side+effect" target="_top">
    <t:tag>side-effect</t:tag>
    <g transform="matrix(0.00841346,0,0,0.00841346,106.028,114.731)" fill="#000000">
      <rect x="-137.28" y="-937.28" width="3833.56" height="1106.56"/>
      <use xlink:href="#f0g115" x="0" y="0"/>
      <use xlink:href="#f0g105" x="331" y="0"/>
      <use xlink:href="#f0g100" x="587" y="0"/>
      <use xlink:href="#f0g101" x="974" y="0"/>
      <use xlink:href="#f0g45" x="1331" y="0"/>
      <use xlink:href="#f0g101" x="1668" y="0"/>
      <use xlink:href="#f0g102" x="2025" y="0"/>
      <use xlink:href="#f0g102" x="2320" y="0"/>
      <use xlink:href="#f0g101" x="2595" y="0"/>
      <use xlink:href="#f0g99" x="2952" y="0"/>
      <use xlink:href="#f0g116" x="3303" y="0"/>
    </g>
  </a>
  <a xlink:href="http://www.google.com/search?q=applicative+functor" target="_top">
    <t:tag>applicative functor</t:tag>
    <g transform="matrix(0.00520505,0,0,0.00520505,40,115.582)" fill="#000000">
      <rect x="-163.68" y="-963.68" width="6667.36" height="1319.36"/>
      <use xlink:href="#f0g97" x="0" y="0"/>
      <use xlink:href="#f0g112" x="365" y="0"/>
      <use xlink:href="#f0g112" x="764" y="0"/>
      <use xlink:href="#f0g108" x="1163" y="0"/>
      <use xlink:href="#f0g105" x="1404" y="0"/>
      <use xlink:href="#f0g99" x="1628" y="0"/>
      <use xlink:href="#f0g97" x="1979" y="0"/>
      <use xlink:href="#f0g116" x="2325" y="0"/>
      <use xlink:href="#f0g105" x="2560" y="0"/>
      <use xlink:href="#f0g118" x="2816" y="0"/>
      <use xlink:href="#f0g101" x="3214" y="0"/>
      <use xlink:href="#f0g32" x="3571" y="0"/>
      <use xlink:href="#f0g102" x="3816" y="0"/>
      <use xlink:href="#f0g117" x="4136" y="0"/>
      <use xlink:href="#f0g110" x="4555" y="0"/>
      <use xlink:href="#f0g99" x="5031" y="0"/>
      <use xlink:href="#f0g116" x="5382" y="0"/>
      <use xlink:href="#f0g111" x="5617" y="0"/>
      <use xlink:href="#f0g114" x="5978" y="0"/>
    </g>
  </a>
  <a xlink:href="http://www.google.com/search?q=comonad" target="_top">
    <t:tag>comonad</t:tag>
    <g transform="matrix(0.0107095,0,0,0.0107095,8,106.112)" fill="#000000">
      <rect x="-137.28" y="-937.28" width="3262.56" height="1106.56"/>
      <use xlink:href="#f0g99" x="0" y="0"/>
      <use xlink:href="#f0g111" x="351" y="0"/>
      <use xlink:href="#f0g109" x="712" y="0"/>
      <use xlink:href="#f0g111" x="1391" y="0"/>
      <use xlink:href="#f0g110" x="1752" y="0"/>
      <use xlink:href="#f0g97" x="2228" y="0"/>
      <use xlink:href="#f0g100" x="2572" y="0"/>
    </g>
  </a>
  <a xlink:href="http://www.google.com/search?q=pattern+matching" target="_top">
    <t:tag>pattern matching</t:tag>
    <g transform="matrix(0.0057971,0,0,0.0057971,96.1855,30.1696)" fill="#000000">
      <rect x="-190.4" y="-926.4" width="6181.8" height="1276.8"/>
      <use xlink:href="#f0g112" x="0" y="0"/>
      <use xlink:href="#f0g97" x="399" y="0"/>
      <use xlink:href="#f0g116" x="745" y="0"/>
      <use xlink:href="#f0g116" x="980" y="0"/>
      <use xlink:href="#f0g101" x="1215" y="0"/>
      <use xlink:href="#f0g114" x="1572" y="0"/>
      <use xlink:href="#f0g110" x="1917" y="0"/>
      <use xlink:href="#f0g32" x="2393" y="0"/>
      <use xlink:href="#f0g109" x="2638" y="0"/>
      <use xlink:href="#f0g97" x="3317" y="0"/>
      <use xlink:href="#f0g116" x="3663" y="0"/>
      <use xlink:href="#f0g99" x="3898" y="0"/>
      <use xlink:href="#f0g104" x="4249" y="0"/>
      <use xlink:href="#f0g105" x="4721" y="0"/>
      <use xlink:href="#f0g110" x="4977" y="0"/>
      <use xlink:href="#f0g103" x="5453" y="0"/>
    </g>
  </a>
  <a xlink:href="http://www.google.com/search?q=zipper" target="_top">
    <t:tag>zipper</t:tag>
    <g transform="matrix(0.0124827,0,0,0.0124827,29.0125,26.1956)" fill="#000000">
      <rect x="-148.84" y="-851.84" width="2458.68" height="1191.68"/>
      <use xlink:href="#f0g122" x="0" y="0"/>
      <use xlink:href="#f0g105" x="389" y="0"/>
      <use xlink:href="#f0g112" x="645" y="0"/>
      <use xlink:href="#f0g112" x="1044" y="0"/>
      <use xlink:href="#f0g101" x="1443" y="0"/>
      <use xlink:href="#f0g114" x="1800" y="0"/>
    </g>
  </a>
  <a xlink:href="http://www.google.com/search?q=closure" target="_top">
    <t:tag>closure</t:tag>
    <g transform="matrix(0.0117994,0,0,0.0117994,61,91.531)" fill="#000000">
      <rect x="-137.28" y="-937.28" width="2647.56" height="1106.56"/>
      <use xlink:href="#f0g99" x="0" y="0"/>
      <use xlink:href="#f0g108" x="351" y="0"/>
      <use xlink:href="#f0g111" x="565" y="0"/>
      <use xlink:href="#f0g115" x="926" y="0"/>
      <use xlink:href="#f0g117" x="1257" y="0"/>
      <use xlink:href="#f0g114" x="1676" y="0"/>
      <use xlink:href="#f0g101" x="2021" y="0"/>
    </g>
  </a>
  <a xlink:href="http://www.google.com/search?q=list+comprehension" target="_top">
    <t:tag>list comprehension</t:tag>
    <g transform="matrix(0.004439,0,0,0.004439,11,111.349)" fill="#000000">
      <rect x="-163.68" y="-963.68" width="6860.36" height="1319.36"/>
      <use xlink:href="#f0g108" x="0" y="0"/>
      <use xlink:href="#f0g105" x="241" y="0"/>
      <use xlink:href="#f0g115" x="497" y="0"/>
      <use xlink:href="#f0g116" x="828" y="0"/>
      <use xlink:href="#f0g32" x="1063" y="0"/>
      <use xlink:href="#f0g99" x="1308" y="0"/>
      <use xlink:href="#f0g111" x="1659" y="0"/>
      <use xlink:href="#f0g109" x="2020" y="0"/>
      <use xlink:href="#f0g112" x="2699" y="0"/>
      <use xlink:href="#f0g114" x="3098" y="0"/>
      <use xlink:href="#f0g101" x="3443" y="0"/>
      <use xlink:href="#f0g104" x="3800" y="0"/>
      <use xlink:href="#f0g101" x="4272" y="0"/>
      <use xlink:href="#f0g110" x="4629" y="0"/>
      <use xlink:href="#f0g115" x="5105" y="0"/>
      <use xlink:href="#f0g105" x="5436" y="0"/>
      <use xlink:href="#f0g111" x="5692" y="0"/>
      <use xlink:href="#f0g110" x="6053" y="0"/>
    </g>
  </a>
  <a xlink:href="http://www.google.com/search?q=catamorphism" target="_top">
    <t:tag>catamorphism</t:tag>
    <g transform="matrix(0.00520833,0,0,0.00520833,34.9115,70)" fill="#000000">
      <rect x="-158.4" y="-926.4" width="5150.8" height="1276.8"/>
      <use xlink:href="#f0g99" x="0" y="0"/>
      <use xlink:href="#f0g97" x="351" y="0"/>
      <use xlink:href="#f0g116" x="697" y="0"/>
      <use xlink:href="#f0g97" x="932" y="0"/>
      <use xlink:href="#f0g109" x="1297" y="0"/>
      <use xlink:href="#f0g111" x="1976" y="0"/>
      <use xlink:href="#f0g114" x="2337" y="0"/>
      <use xlink:href="#f0g112" x="2682" y="0"/>
      <use xlink:href="#f0g104" x="3081" y="0"/>
      <use xlink:href="#f0g105" x="3553" y="0"/>
      <use xlink:href="#f0g115" x="3809" y="0"/>
      <use xlink:href="#f0g109" x="4140" y="0"/>
    </g>
  </a>
  <a xlink:href="http://www.google.com/search?q=higher+order+function" target="_top">
    <t:tag>higher-order function</t:tag>
    <g transform="matrix(0.00451168,0,0,0.00451168,57,26.3715)" fill="#000000">
      <rect x="-163.68" y="-963.68" width="7863.36" height="1319.36"/>
      <use xlink:href="#f0g104" x="0" y="0"/>
      <use xlink:href="#f0g105" x="472" y="0"/>
      <use xlink:href="#f0g103" x="728" y="0"/>
      <use xlink:href="#f0g104" x="1087" y="0"/>
      <use xlink:href="#f0g101" x="1559" y="0"/>
      <use xlink:href="#f0g114" x="1916" y="0"/>
      <use xlink:href="#f0g45" x="2261" y="0"/>
      <use xlink:href="#f0g111" x="2598" y="0"/>
      <use xlink:href="#f0g114" x="2959" y="0"/>
      <use xlink:href="#f0g100" x="3304" y="0"/>
      <use xlink:href="#f0g101" x="3691" y="0"/>
      <use xlink:href="#f0g114" x="4048" y="0"/>
      <use xlink:href="#f0g32" x="4393" y="0"/>
      <use xlink:href="#f0g102" x="4638" y="0"/>
      <use xlink:href="#f0g117" x="4958" y="0"/>
      <use xlink:href="#f0g110" x="5377" y="0"/>
      <use xlink:href="#f0g99" x="5853" y="0"/>
      <use xlink:href="#f0g116" x="6204" y="0"/>
      <use xlink:href="#f0g105" x="6439" y="0"/>
      <use xlink:href="#f0g111" x="6695" y="0"/>
      <use xlink:href="#f0g110" x="7056" y="0"/>
    </g>
  </a>
  <a xlink:href="http://www.google.com/search?q=lambda" target="_top">
    <t:tag>lambda</t:tag>
    <g transform="matrix(0.0101133,0,0,0.0101133,93,22.3835)" fill="#000000">
      <rect x="-137.28" y="-937.28" width="2746.56" height="1106.56"/>
      <use xlink:href="#f0g108" x="0" y="0"/>
      <use xlink:href="#f0g97" x="241" y="0"/>
      <use xlink:href="#f0g109" x="606" y="0"/>
      <use xlink:href="#f0g98" x="1285" y="0"/>
      <use xlink:href="#f0g100" x="1692" y="0"/>
      <use xlink:href="#f0g97" x="2088" y="0"/>
    </g>
  </a>
  <a xlink:href="http://www.google.com?q=map" target="_top">
    <t:tag>map</t:tag>
    <g transform="matrix(0.0139082,0,0,0.0139082,6,56.2253)" fill="#000000">
      <rect x="-116.16" y="-628.16" width="1670.32" height="936.32"/>
      <use xlink:href="#f0g109" x="0" y="0"/>
      <use xlink:href="#f0g97" x="679" y="0"/>
      <use xlink:href="#f0g112" x="1044" y="0"/>
    </g>
  </a>
  <a xlink:href="http://www.google.com?q=filter" target="_top">
    <t:tag>filter</t:tag>
    <g transform="matrix(0.0110081,0,0,0.0110081,124,54.2271)" fill="#000000">
      <rect x="-137.28" y="-937.28" width="2000.56" height="1106.56"/>
      <use xlink:href="#f0g102" x="0" y="0"/>
      <use xlink:href="#f0g105" x="275" y="0"/>
      <use xlink:href="#f0g108" x="531" y="0"/>
      <use xlink:href="#f0g116" x="772" y="0"/>
      <use xlink:href="#f0g101" x="1007" y="0"/>
      <use xlink:href="#f0g114" x="1364" y="0"/>
    </g>
  </a>
</svg>